<svg xmlns="http://www.w3.org/2000/svg" width="164.354" height="46.721" viewBox="0 0 164.354 46.721">
  <g id="Group_13076" data-name="Group 13076" transform="translate(22226.684 21672.9)">
    <g id="Group_12986" data-name="Group 12986" transform="translate(-22227.33 -21491.273)">
      <path id="Path_14504" data-name="Path 14504" d="M44.5-177.865a5.969,5.969,0,0,1,5.963-3.737,8.989,8.989,0,0,0-.648,9.578c1.416,1.943,3.3,3.628,4.1,5.956.659,1.868.869,4.115-.275,5.842a8.749,8.749,0,0,1-5.279,3.195,13.072,13.072,0,0,1-3.468.2c.009,2.073,0,4.149.007,6.222.065.592.009,1.338.561,1.72.563.539,1.383.407,2.093.447-.006.19-.011.384-.015.577-3.269.011-6.537-.012-9.806.006-.009-.194-.016-.391-.025-.585.744-.04,1.64.1,2.2-.5a2.261,2.261,0,0,0,.462-1.669c.018-2.1.007-4.2,0-6.3-2.223-.009-4.446,0-6.669,0,.007,2.1-.006,4.2,0,6.3a2.148,2.148,0,0,0,.574,1.742,3.176,3.176,0,0,0,2.1.429l-.02.577c-3.271,0-6.542.006-9.815-.005-.009-.192-.018-.384-.025-.579.7-.04,1.517.1,2.1-.391a2.309,2.309,0,0,0,.558-1.787c.011-2.1,0-4.2,0-6.3-4.6.007-9.2-.018-13.794-.018a66.04,66.04,0,0,0,.186,7.313A1.926,1.926,0,0,0,16.8-149a8.625,8.625,0,0,0,5.319-.963,7.135,7.135,0,0,0,2.7-4.282l.572-.047c-.311,2.142-.568,4.294-.894,6.432q-8.148,0-16.3,0c.011-.192.02-.386.031-.579.688-.051,1.479.094,2.051-.386a2.227,2.227,0,0,0,.59-1.781c.013-2.279,0-4.558,0-6.836A8.146,8.146,0,0,0,4.3-155.31a3.816,3.816,0,0,0-.9,2.891c.084,2.2,1.7,3.9,3.3,5.221a7.015,7.015,0,0,0,6.164.8c.414,1.872-1.208,3.327-2.828,3.856a5.559,5.559,0,0,1,.547,3.879,6.174,6.174,0,0,1-5.965,3.751,9.407,9.407,0,0,0,1.7-6.571,7.3,7.3,0,0,0-1.459-3.659c-1.428-1.718-3.027-3.4-3.751-5.564a6.885,6.885,0,0,1,.183-5.386A8.187,8.187,0,0,1,6.164-159.4c1.519-.527,3.144-.266,4.714-.3.007-1.812.016-3.626,0-5.44a2,2,0,0,0-.528-1.587c-.563-.525-1.392-.415-2.093-.551l-.02-.471c5.275-.006,10.489.021,15.764,0,.016,1.95-.006,3.9.016,5.854l-.55.02c-.279-1.488-.744-3.164-2.14-3.98-1.79-1.07-3.959-.663-5.938-.728,0,2.382.011,4.766,0,7.147,2.185-.026,4.372,0,6.552-.163,2.413-.018,4.826-.056,7.242-.073-.007-1.9.017-3.794-.014-5.691a1.717,1.717,0,0,0-.507-1.372,3.508,3.508,0,0,0-2.147-.514c0-.123,0-.371,0-.493,3.291.006,6.58-.005,9.871.006,0,.125.005.376.007.5-.976-.025-2.389.1-2.578,1.3-.222,2.071-.056,4.167-.1,6.247,2.225.018,4.448.069,6.673.087-.006-1.774.007-3.548,0-5.322-.034-.572.036-1.242-.407-1.682a2.961,2.961,0,0,0-2.258-.634c0-.128,0-.378,0-.5,3.28,0,6.562,0,9.844,0,0,.125,0,.373.007.5a3.359,3.359,0,0,0-2.163.545,2.556,2.556,0,0,0-.5,1.792c-.009,1.923,0,3.849,0,5.773a7.662,7.662,0,0,0,5.914-2.167,3.952,3.952,0,0,0,.914-2.721c-.1-2.2-1.616-4-3.269-5.313a6.412,6.412,0,0,0-4.4-1.22c-.621.132-1.247.25-1.863.4a3.084,3.084,0,0,1,.565-2.323,5.348,5.348,0,0,1,2.333-1.576A5.242,5.242,0,0,1,44.5-177.865Z"/>
      <path id="Path_14505" data-name="Path 14505" d="M17.719-145.928l1.066,2.159,2.383.346-1.724,1.681.407,2.373-2.131-1.121-2.131,1.121L16-141.741l-1.724-1.681,2.383-.346Z"/>
      <path id="Path_14506" data-name="Path 14506" d="M26.207-146.035l1.066,2.159,2.383.346-1.724,1.681.407,2.373L26.207-140.6l-2.131,1.121.407-2.373-1.724-1.681,2.383-.346Z"/>
      <path id="Path_14507" data-name="Path 14507" d="M34.8-145.928l1.066,2.159,2.383.346-1.724,1.681.407,2.373L34.8-140.489l-2.131,1.121.407-2.373-1.724-1.681,2.383-.346Z"/>
      <path id="Path_14508" data-name="Path 14508" d="M43.4-145.82l1.066,2.159,2.383.346-1.724,1.681.407,2.373-2.131-1.12-2.131,1.12.407-2.373-1.724-1.681,2.383-.346Z"/>
    </g>
    <g id="Group_12991" data-name="Group 12991" transform="translate(-22227.33 -21491.273)">
      <path id="Path_14509" data-name="Path 14509" d="M75.269-175.78a16.948,16.948,0,0,1,1.7-5.3c0,3.767-1.005,7.5-.663,11.283.336,2.165,2.258,3.648,4.248,4.241A25.517,25.517,0,0,0,87.63-164.5c7.635-.152,15.4-1.081,22.533-3.954,2.145-.794,3.98-2.264,6.215-2.831a8.673,8.673,0,0,1,2.171-2.508c-.54-.356-1.18-.655-1.44-1.288a2.651,2.651,0,0,1,.59-1.539,11.211,11.211,0,0,1,2.781-3.173,1.565,1.565,0,0,1,1.836-.063c.332.288.239.392-.057.718a2.435,2.435,0,0,1-1.422.685c-1.19.245-2.476,1.343-.055,2.232a1.237,1.237,0,0,0,.423.043c1.424.191,2.59-.785,3.879-1.2-.218.554-.416,1.193-1.052,1.391a18.866,18.866,0,0,0-6.254,4.172c-.1.833.776,1.269,1.434,1.764.214.1.573.228.589.394.1.981-1.384,1.381-2.056,2.093-1.242-.363-2.57-1.681-3.832-.7-4.96,3.341-10.74,5.21-16.549,6.439a41.5,41.5,0,0,1-17,.326c-2.567-.494-5.157-2.181-5.688-4.9C74.294-169.526,74.907-172.673,75.269-175.78Z"/>
      <path id="Path_14510" data-name="Path 14510" d="M139.718-176.419a9.03,9.03,0,0,1,1.7-4.37c-.376,2.541-.55,5.108-.956,7.642a7.249,7.249,0,0,1-1.4,3.236C139.326-172.076,139.53-174.248,139.718-176.419Z"/>
      <path id="Path_14511" data-name="Path 14511" d="M136.212-175.1a9.26,9.26,0,0,1,1.71-5.387,37.3,37.3,0,0,1-1.262,6.4c-.415.959.886,1.272,1.249,2a3.145,3.145,0,0,1-.982,1.8c-.8.026-1.552-.676-2.346-.317-1.055.673-1.576,1.915-2.6,2.62a2.85,2.85,0,0,1-2.824-.135c-.468,1.147-.831,2.593-2.083,3.131a5.282,5.282,0,0,1-1.971-.205c-.148.623-.3,1.249-.418,1.882a8.153,8.153,0,0,1,1.957,1.545c-.023.505-.043,1.009-.056,1.516a9.7,9.7,0,0,1-4.518,6.152c-1.7.884-4.323.976-5.427-.86-1.091-1.957-.3-4.307.442-6.244a13.008,13.008,0,0,1,2.5-4.162c-.728,2.142-2.215,4.083-2.244,6.422a2.541,2.541,0,0,0,1.726,2.4A5.9,5.9,0,0,0,125.1-158.4a3.018,3.018,0,0,0,.442-1.146,12.44,12.44,0,0,1-2.218-1.519c.132-1.935,1.229-3.609,1.542-5.5.3-1.5.013-3.078.488-4.551a10.268,10.268,0,0,1,1.292-2.771,18.759,18.759,0,0,0-.257,5.43,1.566,1.566,0,0,0,1.776.725c.7-.576.593-1.6.7-2.409.02-2.2.208-4.636,1.714-6.376-.261,1.658-.824,3.348-.459,5.035.485,1.134,2.05,1.111,3.032.738C134.653-171.724,136.185-173.157,136.212-175.1Z"/>
      <g id="Group_12987" data-name="Group 12987">
        <path id="Path_14512" data-name="Path 14512" d="M160.683-177.026c.736,1.193,2.283,1.306,3.571,1.66a1,1,0,0,1,.745.968,2.9,2.9,0,0,1-1.628,2.635c-1.084.188-2.178-.389-3.246-.142-.827.511-1.459,1.285-2.3,1.776a4,4,0,0,1-1.47.118.593.593,0,0,0-.406.176c-.317.314-.626.642-.971.925a1.38,1.38,0,0,1-.773.3c-.49.038-.994-.053-1.481-.055-.049,3.433-.346,7.052-2.2,10.044-1.424,2.395-3.977,4.435-6.9,4.2a3.223,3.223,0,0,1-3.443-2.362c-.5-2.607,1.374-5.2,2.676-7.362.135-.026-.135.03,0,0a13.621,13.621,0,0,0-1.638,3.948,2.729,2.729,0,0,0,2.287,2.91c3.288.645,7.065-1.48,7.727-4.881.56-3.292.363-6.65.452-9.974.184-1.579.356-3.339,1.565-4.505.7-.267,1.166.5,1.69.82.412-.507.821-1.014,1.236-1.519a3.515,3.515,0,0,1,1.569,1.579,6.93,6.93,0,0,1-1.305,1.6,11.514,11.514,0,0,1-1.562-.6,3.589,3.589,0,0,1-1.855,1.144.1.1,0,0,0-.092.1,14.238,14.238,0,0,0,.077,1.777,1.069,1.069,0,0,0,.5.758,2.911,2.911,0,0,0,1.247.3,1.262,1.262,0,0,0,.876-.267,10.789,10.789,0,0,1,1.071-.791.8.8,0,0,1,.574-.082,2.269,2.269,0,0,0,1.884-.317c-.145-.162-.522-.437-.583-.643-.255-.855.474-1.717,1.051-2.4m.185.5a.506.506,0,0,0-.133.136,1.635,1.635,0,0,0-.085,1.314c.773.214,2.379.054,2.171-.847A1.29,1.29,0,0,0,159.813-174.679Zm2.362.314c-.142.468-.227.749-.355,1.22.688.014,1.468.517,2.045.13.181-.121.419-.6.33-.8C163.909-174.453,162.847-174.187,162.175-174.365Z"/>
      </g>
      <path id="Path_14513" data-name="Path 14513" d="M69.875-172.785c.158-.524.659-.207.962-.042a4.348,4.348,0,0,1,2.32,4.445,10.41,10.41,0,0,1-2.109,4.4,8.372,8.372,0,0,1-5.174,2.188c1.7-1.592,3.965-2.61,5.181-4.686-.679-1.246-1.961-1.971-2.8-3.048A20.987,20.987,0,0,1,69.875-172.785Z"/>
      <path id="Path_14514" data-name="Path 14514" d="M141.992-167.832a17.336,17.336,0,0,0,1.97-2.5c.065.521-.1,1.134.205,1.566a.877.877,0,0,0,.838.433c.4,0,.709-.36,1.066-.536a5.349,5.349,0,0,1-1.321,2.938.845.845,0,0,1-.709.264,2.132,2.132,0,0,1-1.726-1.406,4.367,4.367,0,0,1-1.819,1.256,17.338,17.338,0,0,1-2.923,7.039,8.217,8.217,0,0,1-5.151,3.413c-1.829.419-4.149-.385-4.663-2.356A9.192,9.192,0,0,1,129.8-165c-.333,1.49-1.3,2.837-1.2,4.412a2.743,2.743,0,0,0,2.116,2.34,6.645,6.645,0,0,0,6.663-2,7.534,7.534,0,0,0,1.861-6.557c.171-.251.155-.468.419-.617C140.345-167.809,141.345-167.259,141.992-167.832Z"/>
      <path id="Path_14515" data-name="Path 14515" d="M132.465-162.494c.415-.968.7-2.583,2.106-2.277a11.673,11.673,0,0,1,.955,1.16,2.59,2.59,0,0,1-1.17,2.014A7.821,7.821,0,0,1,132.465-162.494Z"/>
      <path id="Path_14516" data-name="Path 14516" d="M140.67-153.952c.583.336,1.328.609,1.562,1.315.083.764-.553,1.341-.893,1.957a13.1,13.1,0,0,1-1.974-.89A12.227,12.227,0,0,1,140.67-153.952Z"/>
      <path id="Path_14517" data-name="Path 14517" d="M135.019-151.906c.359-.428.563-1.064,1.081-1.321a1.792,1.792,0,0,1,1.456,1.189,2.485,2.485,0,0,1-1.133,1.846c-.626.016-1.065-.534-1.585-.8-.462.471-.837,1.482-1.658,1.163a4.429,4.429,0,0,1-1.117-.877,9.186,9.186,0,0,1,1.3-2.221C133.922-152.6,134.475-152.262,135.019-151.906Z"/>
      <g id="Group_12988" data-name="Group 12988">
        <path id="Path_14518" data-name="Path 14518" d="M66.357-137.46v-4.752H69.88v.8H67.317v1.054H69.7v.8H67.317v1.292h2.654v.8Z"/>
        <path id="Path_14519" data-name="Path 14519" d="M70.772-137.46v-4.752h1.435l.863,3.241.852-3.241h1.44v4.752H74.47V-141.2l-.943,3.741H72.6l-.94-3.741v3.741Z"/>
        <path id="Path_14520" data-name="Path 14520" d="M80.6-137.46H79.556l-.415-1.08h-1.9l-.393,1.08H75.832l1.851-4.752H78.7Zm-1.766-1.879-.655-1.765-.641,1.765Z"/>
        <path id="Path_14521" data-name="Path 14521" d="M81.106-142.212H82.86a3.436,3.436,0,0,1,.9.091,1.593,1.593,0,0,1,.716.438,2.065,2.065,0,0,1,.454.77,3.5,3.5,0,0,1,.156,1.123,3.1,3.1,0,0,1-.146,1.011,2.087,2.087,0,0,1-.509.84,1.683,1.683,0,0,1-.675.378,2.851,2.851,0,0,1-.848.1H81.106Zm.959.8v3.147h.718a2.63,2.63,0,0,0,.579-.045.874.874,0,0,0,.387-.2.993.993,0,0,0,.252-.458,3.132,3.132,0,0,0,.1-.87,2.879,2.879,0,0,0-.1-.847,1.1,1.1,0,0,0-.272-.46.919.919,0,0,0-.444-.224,4.507,4.507,0,0,0-.789-.045Z"/>
        <path id="Path_14522" data-name="Path 14522" d="M87.718-137.46v-4.752h.959v4.752Z"/>
        <path id="Path_14523" data-name="Path 14523" d="M89.6-137.46v-4.752h.934l1.944,3.174v-3.174h.892v4.752h-.963l-1.915-3.1v3.1Z"/>
        <path id="Path_14524" data-name="Path 14524" d="M95.456-137.46v-3.948h-1.41v-.8h3.776v.8H96.416v3.948Z"/>
        <path id="Path_14525" data-name="Path 14525" d="M98.44-137.46v-4.752h3.524v.8H99.4v1.054h2.386v.8H99.4v1.292h2.655v.8Z"/>
        <path id="Path_14526" data-name="Path 14526" d="M102.872-137.46v-4.752h2.019a3.47,3.47,0,0,1,1.107.128,1.091,1.091,0,0,1,.552.456,1.362,1.362,0,0,1,.207.748,1.264,1.264,0,0,1-.314.883,1.5,1.5,0,0,1-.94.44,2.247,2.247,0,0,1,.514.4,5.476,5.476,0,0,1,.546.772l.58.927H106l-.693-1.034a6.769,6.769,0,0,0-.506-.7.743.743,0,0,0-.289-.2,1.6,1.6,0,0,0-.483-.054h-.194v1.984Zm.959-2.742h.71a3.63,3.63,0,0,0,.861-.059.5.5,0,0,0,.269-.2.612.612,0,0,0,.1-.356.571.571,0,0,0-.129-.389.585.585,0,0,0-.361-.185c-.078-.011-.311-.017-.7-.017h-.748Z"/>
        <path id="Path_14527" data-name="Path 14527" d="M107.673-137.46v-4.752h.933l1.945,3.174v-3.174h.892v4.752h-.963l-1.915-3.1v3.1Z"/>
        <path id="Path_14528" data-name="Path 14528" d="M116.742-137.46H115.7l-.415-1.08h-1.9l-.393,1.08h-1.017l1.851-4.752h1.014Zm-1.767-1.879-.655-1.765-.641,1.765Z"/>
        <path id="Path_14529" data-name="Path 14529" d="M117.828-137.46v-3.948h-1.411v-.8h3.777v.8h-1.407v3.948Z"/>
        <path id="Path_14530" data-name="Path 14530" d="M120.784-137.46v-4.752h.959v4.752Z"/>
        <path id="Path_14531" data-name="Path 14531" d="M122.463-139.806a3.018,3.018,0,0,1,.218-1.219,2.244,2.244,0,0,1,.442-.652,1.877,1.877,0,0,1,.614-.428,2.614,2.614,0,0,1,1.023-.188,2.239,2.239,0,0,1,1.682.651,2.5,2.5,0,0,1,.631,1.812,2.485,2.485,0,0,1-.627,1.8,2.208,2.208,0,0,1-1.672.65,2.238,2.238,0,0,1-1.686-.646A2.46,2.46,0,0,1,122.463-139.806Zm.989-.033a1.78,1.78,0,0,0,.372,1.223,1.213,1.213,0,0,0,.946.417,1.207,1.207,0,0,0,.943-.413,1.822,1.822,0,0,0,.367-1.24,1.783,1.783,0,0,0-.358-1.218,1.213,1.213,0,0,0-.952-.4,1.219,1.219,0,0,0-.955.406A1.79,1.79,0,0,0,123.452-139.839Z"/>
        <path id="Path_14532" data-name="Path 14532" d="M127.831-137.46v-4.752h.933l1.945,3.174v-3.174h.892v4.752h-.963l-1.915-3.1v3.1Z"/>
        <path id="Path_14533" data-name="Path 14533" d="M136.9-137.46h-1.043l-.416-1.08h-1.9l-.393,1.08h-1.017l1.851-4.752H135Zm-1.767-1.879-.655-1.765-.641,1.765Z"/>
        <path id="Path_14534" data-name="Path 14534" d="M137.435-137.46v-4.712h.96v3.911h2.386v.8Z"/>
        <path id="Path_14535" data-name="Path 14535" d="M143.192-137.46v-4.752h.96v1.87h1.879v-1.87h.96v4.752h-.96v-2.077h-1.879v2.077Z"/>
        <path id="Path_14536" data-name="Path 14536" d="M147.788-139.806a3.017,3.017,0,0,1,.218-1.219,2.244,2.244,0,0,1,.442-.652,1.877,1.877,0,0,1,.614-.428,2.616,2.616,0,0,1,1.024-.188,2.238,2.238,0,0,1,1.681.651,2.5,2.5,0,0,1,.631,1.812,2.485,2.485,0,0,1-.627,1.8,2.208,2.208,0,0,1-1.672.65,2.235,2.235,0,0,1-1.685-.646A2.456,2.456,0,0,1,147.788-139.806Zm.989-.033a1.78,1.78,0,0,0,.372,1.223,1.214,1.214,0,0,0,.946.417,1.207,1.207,0,0,0,.943-.413,1.822,1.822,0,0,0,.367-1.24,1.783,1.783,0,0,0-.358-1.218,1.213,1.213,0,0,0-.952-.4,1.219,1.219,0,0,0-.955.406A1.8,1.8,0,0,0,148.777-139.839Z"/>
        <path id="Path_14537" data-name="Path 14537" d="M154.216-137.46v-3.948h-1.41v-.8h3.776v.8h-1.407v3.948Z"/>
        <path id="Path_14538" data-name="Path 14538" d="M157.2-137.46v-4.752h3.524v.8h-2.564v1.054h2.386v.8h-2.386v1.292h2.655v.8Z"/>
        <path id="Path_14539" data-name="Path 14539" d="M161.655-137.46v-4.712h.959v3.911H165v.8Z"/>
      </g>
      <g id="Group_12989" data-name="Group 12989">
        <rect id="Rectangle_7204" data-name="Rectangle 7204" width="98.64" height="1.276" transform="translate(66.359 -145.764)"/>
      </g>
      <g id="Group_12990" data-name="Group 12990">
        <rect id="Rectangle_7205" data-name="Rectangle 7205" width="98.64" height="1.276" transform="translate(66.359 -136.182)"/>
      </g>
    </g>
  </g>
</svg>
