<svg xmlns="http://www.w3.org/2000/svg" width="163.338" height="47.598" viewBox="0 0 163.338 47.598">
  <g id="Group_13077" data-name="Group 13077" transform="translate(22227 21611.113)">
    <g id="Group_12993" data-name="Group 12993" transform="translate(-22227.33 -21491.273)">
      <path id="Path_14540" data-name="Path 14540" d="M24.838-114.453s7.05-2.546,13.611,5.189c0,0-9.694-2.154-12.338,0,0,0,3.721,1.273,4.7,3.917,0,0-7.833-2.644-11.946,0,0,0,4.309.881,4.7,2.84,0,0-9.008-1.665-11.652,4.6H17.2s-6.365,3.917-6.757,8.812c0,0-8.616-8.176,4.113-19.216,0,0-14.905,5.41-6.963,22.937,0,0,9.215,20.971,35.359,3.435,0,0-1.406,4.973-13,8.585a23.137,23.137,0,0,1-19.37-2.375,22.919,22.919,0,0,1-8.459-9.841S-.718-91.638.751-102.7l.1-7.148a5.843,5.843,0,0,1,4.309,3.917h.587l-.026-.6A4.489,4.489,0,0,1,6.752-109.6a14.5,14.5,0,0,1,2.068-2.1,7.636,7.636,0,0,0,1.993-2.351,7.34,7.34,0,0,0,1-2.556s2.546.293,1.469,4.21c0,0,10.869-4.6,11.26-7.442A5.973,5.973,0,0,1,24.838-114.453Z"/>
      <g id="Group_12992" data-name="Group 12992">
        <path id="Path_14541" data-name="Path 14541" d="M23.483-87.865a3.654,3.654,0,0,0-2.277.536.17.17,0,0,1-.224.008c-.069-.056-.049-.206.06-.455a5.692,5.692,0,0,1,.87-1.242,5.816,5.816,0,0,1,1.571-1.3A3.5,3.5,0,0,1,23.483-87.865Z"/>
        <path id="Path_14542" data-name="Path 14542" d="M29.6-90.083a1.9,1.9,0,0,0-.551-.03,2.316,2.316,0,0,0-1.191.73A8.852,8.852,0,0,1,26.5-88.23a2.938,2.938,0,0,1-1.317.6,2.961,2.961,0,0,1-.93-.052q-.41-.1-.767-.186a3.552,3.552,0,0,1-.178-1.258,6.137,6.137,0,0,1,.178-1.2,3.163,3.163,0,0,1,1.325-.424,2.362,2.362,0,0,1,.953.171,2.085,2.085,0,0,0,.818.179,2.179,2.179,0,0,0,.924-.135,3.212,3.212,0,0,0,.639-.461,4.628,4.628,0,0,0,.343-.313c.109-.109.26-.246.454-.409a1.447,1.447,0,0,1,.662-.32c.06.268.114.482.164.64a1.848,1.848,0,0,1,.074.446,1.694,1.694,0,0,1-.148.641A.5.5,0,0,1,29.6-90.083Z"/>
        <path id="Path_14543" data-name="Path 14543" d="M24.686-81.322c0,.059.146.208.44.447s.508.417.647.535a.639.639,0,0,0,.342.194q.475,0,1.281-1.623a6.719,6.719,0,0,1,.759.67q.432.432.595.432.254,0,.789-.759a2.453,2.453,0,0,0,.551-1.34,1.719,1.719,0,0,0-.544-1.02,1.388,1.388,0,0,0-.885-.543q-.12,0-.484.61c-.243.408-.464.774-.663,1.1a6.147,6.147,0,0,0-.736-.826c-.323-.312-.569-.435-.737-.365q-.134,0-.744,1.147A5.8,5.8,0,0,0,24.686-81.322Z"/>
        <path id="Path_14544" data-name="Path 14544" d="M29.6-92.033a2.3,2.3,0,0,0,.879.179,1.056,1.056,0,0,0,.5-.179.59.59,0,0,0,.215-.521.923.923,0,0,0-.208-.536.575.575,0,0,0-.432-.253l-.238.119a1.053,1.053,0,0,1-.462.059,2.463,2.463,0,0,1-.878-.163.594.594,0,0,1-.4-.566,1.916,1.916,0,0,1,.149-.669q.165-.432.551-1.221a7.112,7.112,0,0,1,.565-1.057c.189-.307.363-.462.522-.462a1.81,1.81,0,0,1,1.28.641,2.643,2.643,0,0,1,.833,2.009,5.14,5.14,0,0,1-.148,1.206,5.52,5.52,0,0,1-.462,1.325,8.592,8.592,0,0,1-.982,1.5q-.521.6-.908.6l-.373-.059a8.48,8.48,0,0,1-.2-.99A1.51,1.51,0,0,1,29.6-92.033Z"/>
        <path id="Path_14545" data-name="Path 14545" d="M27.909-100.767a5.809,5.809,0,0,1,.609-1.339q.612-1.147.746-1.147c.168-.07.413.053.736.365a6.164,6.164,0,0,1,.737.826q.3-.491.662-1.1c.243-.406.4-.61.484-.61a1.383,1.383,0,0,1,.885.544,1.709,1.709,0,0,1,.544,1.019,2.448,2.448,0,0,1-.551,1.34q-.536.759-.788.759-.165,0-.6-.432a6.719,6.719,0,0,0-.759-.67q-.8,1.623-1.28,1.623A.641.641,0,0,1,29-99.785c-.139-.118-.355-.3-.648-.535S27.909-100.707,27.909-100.767Z"/>
        <path id="Path_14546" data-name="Path 14546" d="M35.9-96.544c.07-.207.219-.242.447-.1a3.511,3.511,0,0,1,1.92,3.111,6.44,6.44,0,0,1-.618,2.553,6.346,6.346,0,0,1-1.109,1.659,5.836,5.836,0,0,1-2.8,1.444,1.909,1.909,0,0,1-.357.045c-.119,0-.179-.03-.179-.089q0-.163.536-.551a14.183,14.183,0,0,0,2.01-1.7q.907-.908.908-1.206,0-.774-1.7-2.158a.535.535,0,0,1-.194-.626Q35.213-95.024,35.9-96.544Z"/>
        <path id="Path_14547" data-name="Path 14547" d="M40.87-93.477a7.268,7.268,0,0,1-.119,1.02,3.389,3.389,0,0,1-.239.774,1.122,1.122,0,0,1-.379.476.775.775,0,0,1-.558.112q.015-1.161.246-3.238t.691-4.592q.239-.729.968-2.575c.05-.12.1-.168.156-.149s.082.069.082.149q-.043.908-.371,3.468t-.4,3.513C40.894-93.883,40.87-93.536,40.87-93.477Z"/>
        <path id="Path_14548" data-name="Path 14548" d="M40.87-93.477a3.4,3.4,0,0,0,.432,1.891,1.839,1.839,0,0,0,1.577.892,2.138,2.138,0,0,0,.976-.2,1.735,1.735,0,0,0,.684-.692,8.6,8.6,0,0,1,.581-.871.573.573,0,0,1,.662-.261,3.327,3.327,0,0,0,.633.232,3.286,3.286,0,0,0,.588.111,4.051,4.051,0,0,0,.565-.826q.417-.708.841-1.362a5.294,5.294,0,0,1,1-1.146,2.207,2.207,0,0,1,1.124-.567q1.131-.028,1.16,1.058a5.3,5.3,0,0,1-1.339,3.274,4.35,4.35,0,0,1-3.409,1.891,3.605,3.605,0,0,1-1.25-.2,3.576,3.576,0,0,1-.714-.365q-.12-.03-.38.328t-.685,1.041a3.262,3.262,0,0,1-.953,1.035,2.2,2.2,0,0,1-1.243.35,1.929,1.929,0,0,1-1.622-.841A3.9,3.9,0,0,1,39.59-91.1a12.446,12.446,0,0,1,.625-1.645A1.45,1.45,0,0,1,40.87-93.477Zm9.854-.7a.537.537,0,0,0-.35-.394,1.462,1.462,0,0,0-.647-.156,1.272,1.272,0,0,0-.968.625c-.278.4-.489.713-.633.945l-.483.782a3.531,3.531,0,0,0,.833-.1,3.009,3.009,0,0,0,1.065-.469,4.663,4.663,0,0,0,.856-.722Q50.724-94.027,50.724-94.177Z"/>
        <path id="Path_14549" data-name="Path 14549" d="M57.13-97.1l1.161-2.591c.059-.1.122-.144.186-.133s.1.1.1.282c-.069.547-.134,1.089-.193,1.63s-.1,1.085-.134,1.63l-.268,6.982a25.774,25.774,0,0,1-.745,5.3,14.3,14.3,0,0,1-1.429,3.573q-2.412,4.57-6.431,4.539a3.482,3.482,0,0,1-2.88-1.19,4.638,4.638,0,0,1-.96-3.007,10.148,10.148,0,0,1,.4-2.553,16.428,16.428,0,0,1,.885-2.418q.522-1.132.856-1.712c.224-.388.4-.561.514-.522q.209.06.1.29c-.07.154-.256.562-.558,1.221s-.519,1.174-.648,1.541a6.64,6.64,0,0,0-.417,2.069,2.732,2.732,0,0,0,1.221,2.471,4.65,4.65,0,0,0,2.471.61A6.949,6.949,0,0,0,52-79.292a4.877,4.877,0,0,0,1.585-.7,6.685,6.685,0,0,0,2.68-3.721,13.681,13.681,0,0,0,.521-4.019q0-1.86.022-3.431t.06-3.223q.036-1.651.1-2.092A2.256,2.256,0,0,1,57.13-97.1Z"/>
        <path id="Path_14550" data-name="Path 14550" d="M57.32-102.346a5.785,5.785,0,0,1,.61-1.34q.611-1.147.744-1.146.253-.1.737.364a6.209,6.209,0,0,1,.736.826q.3-.491.664-1.1c.242-.406.4-.611.483-.611a1.389,1.389,0,0,1,.886.544,1.714,1.714,0,0,1,.543,1.02,2.45,2.45,0,0,1-.55,1.339q-.537.759-.79.759c-.109,0-.307-.143-.6-.431a6.719,6.719,0,0,0-.759-.67q-.8,1.623-1.28,1.623a.644.644,0,0,1-.343-.194q-.208-.179-.647-.535T57.32-102.346Z"/>
        <path id="Path_14551" data-name="Path 14551" d="M62.92-94.967a1.4,1.4,0,0,0-.432-.044,1.258,1.258,0,0,0-.624.177,1.589,1.589,0,0,0-.551.567Q60.3-92.3,58.812-92.3c-.586-.05-.878-.021-.878.089-.079,0-.119-.139-.119-.418q0-.491.014-.744c.011-.168.026-.461.045-.877a14.154,14.154,0,0,1,.179-1.549,5.961,5.961,0,0,1,.149-.848,2.322,2.322,0,0,0,.29,1.391,1.158,1.158,0,0,0,.692.424,3.618,3.618,0,0,0,.671.076,1.61,1.61,0,0,0,.8-.194,2.653,2.653,0,0,0,.595-.521,9.351,9.351,0,0,1,1.013-1.109,1.254,1.254,0,0,1,.654-.335c.05.238.075.367.075.386a3.97,3.97,0,0,1,.149.79,1.738,1.738,0,0,1-.06.4A2.793,2.793,0,0,1,62.92-94.967Z"/>
        <path id="Path_14552" data-name="Path 14552" d="M62.921-96.917a1.081,1.081,0,0,0,1.355-.521q.208-.372.327-.588t.135-.261a2.83,2.83,0,0,1,.588-.707.957.957,0,0,1,.6-.216.832.832,0,0,1,.7.253c.11,0,.2-.094.284-.283s.148-.267.208-.267c.258,0,.387.214.387.64a2.136,2.136,0,0,1-.3,1.071.927.927,0,0,1-.849.567.83.83,0,0,1-.371-.12,1.135,1.135,0,0,0-.477-.119c-.267,0-.546.213-.834.64-.1.188-.317.55-.654,1.087a1.953,1.953,0,0,1-.6.722.527.527,0,0,1-.5.052,5.061,5.061,0,0,1-.223-.976A1.552,1.552,0,0,1,62.921-96.917Zm3.856,6.3a9,9,0,0,0-.96,1.794,4.854,4.854,0,0,0-.544,1.838q.952.536.953,1.131a1.357,1.357,0,0,1-.268.8.741.741,0,0,1-.625.372.593.593,0,0,1-.566-.357,2.017,2.017,0,0,1-.164-.819,7.4,7.4,0,0,1,.908-2.918Q66.42-90.65,66.777-90.62Z"/>
      </g>
    </g>
    <g id="Group_12994" data-name="Group 12994" transform="translate(-22227.33 -21491.273)">
      <path id="Path_14553" data-name="Path 14553" d="M77.731-99.679c-.238-.864-.63-1.714-1.945-1.714a1.344,1.344,0,0,0-1.469,1.426c0,.9.616,1.36,1.777,1.923,1.679.81,2.406,1.412,2.406,2.655,0,1.373-1.273,2.419-3.077,2.419a6.191,6.191,0,0,1-2.141-.431,16.84,16.84,0,0,1-.378-1.962l.434-.105a2.491,2.491,0,0,0,2.351,2.014,1.49,1.49,0,0,0,1.622-1.5c0-1.007-.574-1.412-1.805-2.04-1.469-.746-2.294-1.374-2.294-2.59,0-1.164,1.035-2.262,2.882-2.262a9.6,9.6,0,0,1,1.847.248c.056.471.112.994.224,1.844Z"/>
      <path id="Path_14554" data-name="Path 14554" d="M84.081-93.009a1.064,1.064,0,0,1-.658-.249,1.2,1.2,0,0,1-.335-.588,4.514,4.514,0,0,1-1.679.837A1.661,1.661,0,0,1,79.7-94.618c0-.641.378-1.059,1.147-1.308a11.353,11.353,0,0,0,2.21-.85v-.261c0-.929-.5-1.465-1.231-1.465a.831.831,0,0,0-.657.3,2.7,2.7,0,0,0-.378.85.386.386,0,0,1-.4.3.655.655,0,0,1-.617-.576c0-.183.183-.34.463-.523a6.046,6.046,0,0,1,2.014-.916,2.03,2.03,0,0,1,1.175.353,1.764,1.764,0,0,1,.713,1.518v2.524c0,.6.239.784.49.784a1.175,1.175,0,0,0,.5-.143l.14.365Zm-1.022-3.309c-.307.143-.979.419-1.3.549-.532.222-.853.471-.853.955a.985.985,0,0,0,1.007,1.007,1.92,1.92,0,0,0,1.147-.471Z"/>
      <path id="Path_14555" data-name="Path 14555" d="M92.6-93.493a15.6,15.6,0,0,0-2.169.484v-.85c-.251.144-.615.327-.867.471a2.657,2.657,0,0,1-1.105.379,2.8,2.8,0,0,1-2.6-2.878,3.434,3.434,0,0,1,3.623-3.178,3.044,3.044,0,0,1,.951.144v-1.923c0-.837-.1-.862-1.091-.941v-.34a14.728,14.728,0,0,0,2.2-.445v7.887c0,.68.1.771.615.8l.448.027Zm-2.169-4.394a1.8,1.8,0,0,0-1.468-.668c-.672,0-1.861.419-1.861,2.3a2.2,2.2,0,0,0,1.944,2.433,2.624,2.624,0,0,0,1.385-.471Z"/>
      <path id="Path_14556" data-name="Path 14556" d="M98.348-94.278a3.252,3.252,0,0,1-2.322,1.269,2.688,2.688,0,0,1-2.741-2.812,3.232,3.232,0,0,1,.909-2.289,2.952,2.952,0,0,1,2.084-.955,2.111,2.111,0,0,1,2.14,2.028c-.014.261-.056.379-.28.431-.279.052-2.07.17-3.734.222a2.153,2.153,0,0,0,2.1,2.472,2.448,2.448,0,0,0,1.623-.667Zm-2.406-4.29c-.643,0-1.273.563-1.469,1.622.784,0,1.567,0,2.393-.039.251,0,.336-.065.336-.262A1.25,1.25,0,0,0,95.942-98.568Z"/>
      <path id="Path_14557" data-name="Path 14557" d="M101.285-95.075a.948.948,0,0,0-.462.653c0,.235.238.5.868.5.517,0,1.1-.014,1.567-.014.895,0,2.042.274,2.042,1.569,0,1.361-1.72,2.643-3.582,2.643-1.58,0-2.433-.864-2.462-1.636a1,1,0,0,1,.35-.745,12.94,12.94,0,0,1,1.147-.942,1.815,1.815,0,0,1-1.049-.706,1.128,1.128,0,0,1-.168-.562,2.954,2.954,0,0,0,1.287-.9Zm.671.13a2.122,2.122,0,0,1-2.378-1.975A2.355,2.355,0,0,1,102.1-99.1a3.027,3.027,0,0,1,1.343.327,9.985,9.985,0,0,0,1.875-.2l.084.117a1.623,1.623,0,0,1-.518.693c-.21,0-.671-.051-.867-.065a1.932,1.932,0,0,1,.4,1.191A2.215,2.215,0,0,1,101.956-94.945Zm.322,1.936a1.867,1.867,0,0,0-1.245.274,1.489,1.489,0,0,0-.671,1.073c0,.719.8,1.256,1.875,1.256,1.328,0,2.084-.642,2.084-1.479a.977.977,0,0,0-.616-.954A4,4,0,0,0,102.278-93.009Zm-.322-5.677c-.629,0-1.189.537-1.189,1.57s.56,1.753,1.329,1.753c.616-.026,1.162-.511,1.162-1.57C103.258-97.953,102.739-98.686,101.956-98.686Z"/>
      <path id="Path_14558" data-name="Path 14558" d="M109.72-93.166v-.366c.812-.079.924-.144.924-1.007v-2.145c0-1.086-.448-1.635-1.386-1.622a2.051,2.051,0,0,0-1.483.68v3.087c0,.85.112.928.951,1.007v.366h-3.049v-.366c.811-.066.993-.132.993-1.007v-6.305c0-.693-.042-.862-.979-.941v-.34a9.109,9.109,0,0,0,2.084-.445v4.46a3.242,3.242,0,0,1,2.028-.955c1.148,0,1.945.667,1.945,2.237v2.3c0,.862.112.928.924.994v.366Z"/>
      <path id="Path_14559" data-name="Path 14559" d="M119.33-98.555c-.728.105-.882.21-1.231.955s-.728,1.622-1.694,3.9a34.275,34.275,0,0,0-1.384,3.583.4.4,0,0,1-.42.34c-.448,0-.853-.3-.853-.627,0-.17.1-.289.307-.458a3,3,0,0,0,.937-.968c.294-.55.5-1.007.575-1.177a.723.723,0,0,0-.029-.536c-.546-1.492-1.3-3.1-1.721-4.041-.307-.72-.434-.877-1.2-.969v-.353h2.825v.353c-.643.092-.714.223-.531.706l1.357,3.218c.391-.9.951-2.354,1.245-3.178.167-.5.07-.641-.742-.746v-.353h2.561Z"/>
      <path id="Path_14560" data-name="Path 14560" d="M119.888-93.166v-.366c.881-.079.979-.144.979-1.034V-97.26c0-.811-.042-.863-.881-.994v-.314a9.714,9.714,0,0,0,1.986-.523v4.525c0,.89.1.955,1.007,1.034v.366Zm1.455-7.207a.742.742,0,0,1-.742-.693.732.732,0,0,1,.756-.719.7.7,0,0,1,.713.719A.719.719,0,0,1,121.343-100.373Z"/>
      <path id="Path_14561" data-name="Path 14561" d="M128.771-94.278a3.252,3.252,0,0,1-2.322,1.269,2.689,2.689,0,0,1-2.743-2.812,3.233,3.233,0,0,1,.91-2.289,2.952,2.952,0,0,1,2.084-.955,2.112,2.112,0,0,1,2.141,2.028c-.014.261-.056.379-.28.431-.28.052-2.071.17-3.736.222a2.155,2.155,0,0,0,2.1,2.472,2.445,2.445,0,0,0,1.623-.667Zm-2.406-4.29c-.644,0-1.274.563-1.469,1.622.783,0,1.567,0,2.392-.039.252,0,.335-.065.335-.262A1.248,1.248,0,0,0,126.365-98.568Z"/>
      <path id="Path_14562" data-name="Path 14562" d="M142.843-101.3c-1.162.1-1.273.17-1.273,1.269v5.244c0,1.1.126,1.138,1.273,1.256v.366h-3.749v-.366c1.161-.132,1.273-.157,1.273-1.256V-97.4h-4.784v2.616c0,1.086.112,1.124,1.258,1.256v.366h-3.735v-.366c1.134-.118,1.259-.157,1.259-1.256v-5.244c0-1.1-.125-1.165-1.259-1.269v-.366h3.735v.366c-1.119.091-1.258.183-1.258,1.269v2.079h4.784v-2.079c0-1.086-.154-1.178-1.273-1.269v-.366h3.749Z"/>
      <path id="Path_14563" data-name="Path 14563" d="M146.674-99.065a2.91,2.91,0,0,1,3.05,2.93,3.028,3.028,0,0,1-3.05,3.126,2.972,2.972,0,0,1-3.106-2.917A3.1,3.1,0,0,1,146.674-99.065Zm-.168.445c-.853,0-1.622.771-1.622,2.289,0,1.661.783,2.864,1.93,2.864.867,0,1.6-.589,1.6-2.38C148.409-97.377,147.737-98.62,146.506-98.62Z"/>
      <path id="Path_14564" data-name="Path 14564" d="M153.458-93.179a1.5,1.5,0,0,1-.6.17c-.9,0-1.371-.511-1.371-1.557v-3.806h-.965l-.056-.156.377-.38h.644v-1.1c.266-.261.672-.6.938-.862l.209.025c-.028.55-.041,1.308-.041,1.936h1.594a.39.39,0,0,1-.083.536h-1.511v3.348c0,1.06.447,1.256.811,1.256a2.13,2.13,0,0,0,.854-.209l.125.34Z"/>
      <path id="Path_14565" data-name="Path 14565" d="M159.865-94.278a3.253,3.253,0,0,1-2.323,1.269,2.688,2.688,0,0,1-2.741-2.812,3.232,3.232,0,0,1,.909-2.289,2.952,2.952,0,0,1,2.084-.955,2.111,2.111,0,0,1,2.14,2.028c-.013.261-.056.379-.279.431-.28.052-2.071.17-3.735.222a2.154,2.154,0,0,0,2.1,2.472,2.448,2.448,0,0,0,1.623-.667Zm-2.407-4.29c-.643,0-1.273.563-1.468,1.622.783,0,1.567,0,2.392-.039.252,0,.336-.065.336-.262A1.25,1.25,0,0,0,157.458-98.568Z"/>
      <path id="Path_14566" data-name="Path 14566" d="M160.562-93.166v-.366c.9-.079,1.008-.144,1.008-1.007V-100.8c0-.8-.07-.877-.965-.981v-.34a10.534,10.534,0,0,0,2.07-.445v8.031c0,.863.084.928.993,1.007v.366Z"/>
    </g>
  </g>
</svg>
