<svg xmlns="http://www.w3.org/2000/svg" width="164.463" height="36.043" viewBox="0 0 164.463 36.043">
  <g id="Group_13079" data-name="Group 13079" transform="translate(22224.574 21546.184)">
    <g id="Group_12995" data-name="Group 12995" transform="translate(-22227.33 -21491.273)">
      <path id="Path_14567" data-name="Path 14567" d="M20.2-38.475,2.755-18.868h5.19l4.073-4.722H22.65v4.722h2.018V-33.1Zm2.379,14.2H12.666l.181-.181,6.559-7.46,3.172,3.73Z"/>
      <path id="Path_14568" data-name="Path 14568" d="M25.641-37.79h3.5V-20.6H32.85v1.73H25.641Z"/>
      <path id="Path_14569" data-name="Path 14569" d="M33.787-18.868V-37.79h3.748l7.1,12.543L51.952-37.79H55.52v18.922H53.466V-33.032l-8.65,13.84L35.877-33.068v14.2Z"/>
      <path id="Path_14570" data-name="Path 14570" d="M45.428-37.79h5.226l-5.226,9.263Z"/>
      <path id="Path_14571" data-name="Path 14571" d="M44.131-37.79H39.013l5.118,9.263Z"/>
      <path id="Path_14572" data-name="Path 14572" d="M80.809-29.008A27.555,27.555,0,0,0,76.2-30.823a3.985,3.985,0,0,1-2-1.227,2.005,2.005,0,0,1-.091-2.756A3.226,3.226,0,0,1,76.671-36h5.46v-1.874H75.564a3.245,3.245,0,0,0-1.328.278A5.9,5.9,0,0,0,70.665-31.6a4,4,0,0,0,.994,2.484c1.023,1.145,3.191,2.717,7.752,3.868a2.206,2.206,0,0,1,1.074.591,1.948,1.948,0,0,1,.156,2.43c-.722,1.4-2.335,1.5-3.367,1.407a2.191,2.191,0,0,1-1.436-.719L60.746-38.4l-4.373,5.244v14.291h2.018v-4.7l10.458-.047,4.223,4.75h6.752S88.763-23.457,80.809-29.008Zm-22.418,4.59v-4.109l2.932-3.556,6.8,7.65Z"/>
      <path id="Path_14573" data-name="Path 14573" d="M33.571-40.9l-.721,1.2-20.592-.168Z"/>
      <path id="Path_14574" data-name="Path 14574" d="M56.373-40.9l.721,1.2,20.592-.168Z"/>
      <path id="Path_14575" data-name="Path 14575" d="M44.131-45.395H45.14l-.324-9.515Z"/>
      <path id="Path_14576" data-name="Path 14576" d="M33.85-38.984h3.46l1.514-3.388-2.955.793Z"/>
      <path id="Path_14577" data-name="Path 14577" d="M55.689-38.984h-3.46l-1.514-3.388,2.955.793Z"/>
      <path id="Path_14578" data-name="Path 14578" d="M44.131-43.881l-3.568,1.153-2.066,3.7h5.635Z"/>
      <path id="Path_14579" data-name="Path 14579" d="M45.428-43.881,49-42.728l2.066,3.7H45.428Z"/>
      <path id="Path_14580" data-name="Path 14580" d="M47.843-45l.9.4,3.82-7.857Z"/>
      <path id="Path_14581" data-name="Path 14581" d="M41.994-45l-.9.4-3.82-7.857Z"/>
      <path id="Path_14582" data-name="Path 14582" d="M52.565-43.3l.757.529,8.794-7.617Z"/>
      <path id="Path_14583" data-name="Path 14583" d="M37.39-43.3l-.757.529-8.794-7.617Z"/>
    </g>
    <g id="Group_12996" data-name="Group 12996" transform="translate(-22227.33 -21491.273)">
      <path id="Path_14584" data-name="Path 14584" d="M96.576-37.8a6.732,6.732,0,0,0,.371,2.05q.351,1.019.943.911c.2-.037.289-.174.277-.408a8.828,8.828,0,0,0-.189-1.189,3.238,3.238,0,0,1-.1-1.031q.083-.56,1-.541l.05.289a14.051,14.051,0,0,0,.422,2.314q.534.825.968.522c.076-.054.134-.234.176-.54q-.345-2.044-.346-2.006-.006-.484.573-.541a.853.853,0,0,1,.842.327.14.14,0,0,1,0,.063q-.213.176-.2.132a2.615,2.615,0,0,0,.126.937,3.859,3.859,0,0,1,.138,1.2,1.214,1.214,0,0,1-.251.78,1.115,1.115,0,0,1-.623.383,1.617,1.617,0,0,1-1.6-.553,1.438,1.438,0,0,1-1.139.622,3.215,3.215,0,0,1-.955-.314,1.807,1.807,0,0,1-1,1.459,3.993,3.993,0,0,1-1.824.251,2.71,2.71,0,0,1-1.748-.641,2.483,2.483,0,0,1-.792-1.629,1.8,1.8,0,0,1,.534-1.459,3,3,0,0,1,1.56-.805.127.127,0,0,1,.081.019c.03.017.042.036.038.057a.889.889,0,0,1-.264.283,1.772,1.772,0,0,0-.591,1.283,2.149,2.149,0,0,0,.308,1.484,1.708,1.708,0,0,0,.88.647,1.441,1.441,0,0,0,1.183-.05.961.961,0,0,0,.5-.949l-.491-2.1a1.48,1.48,0,0,1,.057-1.075.908.908,0,0,1,.949-.4C96.517-38.011,96.563-37.94,96.576-37.8Z"/>
      <path id="Path_14585" data-name="Path 14585" d="M103.317-40.449a.791.791,0,0,1,.465.585q.239,1.792.465,3.66a2.325,2.325,0,0,0,.183.8.635.635,0,0,0,.717.321v.893a2.489,2.489,0,0,1-.856-.075,1.136,1.136,0,0,1-.7-.422,8,8,0,0,1-.585-2.5,15.123,15.123,0,0,0-.471-2.547c-.017-.067-.082-.1-.195-.1-.03,0-.048-.017-.057-.051a.082.082,0,0,1,0-.075.98.98,0,0,1,.3-.308A.77.77,0,0,1,103.317-40.449Z"/>
      <path id="Path_14586" data-name="Path 14586" d="M110.636-35.085v.893a1.732,1.732,0,0,1-1.415-.314,1.373,1.373,0,0,1-1.037.358,1.619,1.619,0,0,1-1.038-.459q-.081-.069-.9.17a4.451,4.451,0,0,1-1.107.245v-.893c.461.009.749-.084.862-.276a.873.873,0,0,0-.013-.359A2.565,2.565,0,0,1,106.033-37a1.2,1.2,0,0,1,.868-.875,2.282,2.282,0,0,1,1.8.378,2.146,2.146,0,0,1,.95,1.943A.914.914,0,0,0,110.636-35.085ZM107.3-37.009a1.549,1.549,0,0,0-.126.968,1.943,1.943,0,0,0,.309.881.786.786,0,0,0,.283.214c.15.083.262.106.333.069a.786.786,0,0,0,.377-.56,1.7,1.7,0,0,0-.025-.792,1.6,1.6,0,0,0-.352-.686.689.689,0,0,0-.6-.251A.257.257,0,0,0,107.3-37.009Z"/>
      <path id="Path_14587" data-name="Path 14587" d="M110.636-35.085q.616-.018.761-.383a1.577,1.577,0,0,0-.012-.818q.018,0-.654-3.653a.759.759,0,0,1,.264-.692.8.8,0,0,1,.761-.057.9.9,0,0,1,.377.2.09.09,0,0,1,.025.069.069.069,0,0,1-.044.063c-.109.037-.159.09-.151.157a14.639,14.639,0,0,0,.327,2.572,8.083,8.083,0,0,1,.208,2.553,1.077,1.077,0,0,1-.768.717,4.754,4.754,0,0,1-1.094.163Z"/>
      <path id="Path_14588" data-name="Path 14588" d="M115.164-40.392a.1.1,0,0,1,.012.075c0,.034-.016.053-.037.057-.114.038-.166.09-.158.157q.045.674.2,1.836.169,1.271.22,1.8l.144,1.572q-.087.7-1.012,1.044c-.034.017-.073.006-.119-.031a.117.117,0,0,1-.057-.114q.238-.282.075-1.295-.2-1.214-.7-4.559a.8.8,0,0,1,.283-.7.807.807,0,0,1,.768-.05A1.031,1.031,0,0,1,115.164-40.392Z"/>
      <path id="Path_14589" data-name="Path 14589" d="M123.049-37.506q.667.5.145,1.088a.857.857,0,0,1-.478.189q-.4.081-.4-.088a1.2,1.2,0,0,0-.472-.912.631.631,0,0,0-.824-.006q-.376.452.3,1.018a4.8,4.8,0,0,0,1.05.591,5.182,5.182,0,0,1,1.057.6,1.436,1.436,0,0,1,.566.918.989.989,0,0,1-.485.949,3.919,3.919,0,0,1-2.251.617,5.428,5.428,0,0,1-2.333-.422,1.718,1.718,0,0,1-1.138-1.534,1.626,1.626,0,0,1,.987-1.616c.122-.063.206-.071.252-.025a.251.251,0,0,1,.025.113,4.7,4.7,0,0,0-.063.78,1.632,1.632,0,0,0,.34,1.094,2.341,2.341,0,0,0,.949.748,2.251,2.251,0,0,0,1.208.195,1.766,1.766,0,0,0,1.106-.578.405.405,0,0,0,.019-.5,1.342,1.342,0,0,0-.383-.453,5.682,5.682,0,0,0-.83-.472q-.668-.313-.875-.44a1.957,1.957,0,0,1-.943-.981.811.811,0,0,1,.195-.83,1.773,1.773,0,0,1,.912-.515,2.481,2.481,0,0,1,1.2-.032A3,3,0,0,1,123.049-37.506Z"/>
      <path id="Path_14590" data-name="Path 14590" d="M125.653-40.449a.791.791,0,0,1,.465.585q.239,1.792.465,3.66a2.325,2.325,0,0,0,.183.8.635.635,0,0,0,.717.321v.893a2.489,2.489,0,0,1-.856-.075,1.136,1.136,0,0,1-.7-.422,8,8,0,0,1-.585-2.5,15.122,15.122,0,0,0-.471-2.547c-.017-.067-.082-.1-.195-.1-.03,0-.048-.017-.057-.051a.082.082,0,0,1,0-.075.98.98,0,0,1,.3-.308A.77.77,0,0,1,125.653-40.449Z"/>
      <path id="Path_14591" data-name="Path 14591" d="M127.527-34.192v-.893a3.333,3.333,0,0,0,.867-.144.09.09,0,0,0-.044-.057,1.412,1.412,0,0,1-.578-.818.8.8,0,0,1,.258-.918.128.128,0,0,0,.031-.113.146.146,0,0,0-.075-.126,1.09,1.09,0,0,1-.705-.855q-.063-.565.642-.842a3.091,3.091,0,0,1,3.106.572,4.413,4.413,0,0,1,1.8,2.66,1.06,1.06,0,0,1-.478,1.2,2.354,2.354,0,0,1-1.484.27,3.321,3.321,0,0,1-1.352-.409,1.107,1.107,0,0,1-.132.044A7.154,7.154,0,0,1,127.527-34.192Zm.974-3.389a.19.19,0,0,0,.069.119c.047.046.082.067.107.063a1.824,1.824,0,0,1,1.145.006,1.644,1.644,0,0,1,.861.78,1.105,1.105,0,0,1-.132,1.094,1.3,1.3,0,0,0-.125.208.188.188,0,0,0,.05.226q.345.252.761-.157a.727.727,0,0,0,.283-.748,2.864,2.864,0,0,0-.9-1.566,1.892,1.892,0,0,0-1.672-.748A.661.661,0,0,0,128.5-37.581Zm.667,1.93q.364.083.56-.408a.5.5,0,0,0-.045-.516.648.648,0,0,0-.427-.264.436.436,0,0,0-.428.214.533.533,0,0,0-.132.477A.648.648,0,0,0,129.168-35.651Z"/>
      <path id="Path_14592" data-name="Path 14592" d="M139.751-40.4a.079.079,0,0,1,.025.069.059.059,0,0,1-.044.063c-.109.037-.159.088-.151.151q.063.32.176,1.528A13.687,13.687,0,0,0,140-36.871q.435,1.962,1.736,1.786v.893a2.647,2.647,0,0,1-1.358-.17,1.742,1.742,0,0,1-.573,1.39,3.262,3.262,0,0,1-2.157.459,2.754,2.754,0,0,1-1.754-.641,2.589,2.589,0,0,1-.836-1.629,1.782,1.782,0,0,1,.5-1.459,2.989,2.989,0,0,1,1.547-.805.147.147,0,0,1,.088.019c.029.017.04.034.031.05a.892.892,0,0,1-.258.3,1.747,1.747,0,0,0-.578,1.295,1.944,1.944,0,0,0,.352,1.466,1.485,1.485,0,0,0,.88.66,1.478,1.478,0,0,0,1.2-.063q.7-.365.384-1.975-.289-1.446-.855-4.559a.777.777,0,0,1,.264-.7.791.791,0,0,1,.761-.05A.954.954,0,0,1,139.751-40.4Zm2.037-.925v-.044l.013.044Z"/>
      <path id="Path_14593" data-name="Path 14593" d="M143.65-35.758a1.2,1.2,0,0,0,.547.617,1.621,1.621,0,0,0,.83.056v.893q-1.422,0-1.824-.648a2.213,2.213,0,0,1-1.49.648v-.893a1.144,1.144,0,0,0,.629-.251q.189-.158.006-.981c-.159-.684-.237-1.05-.233-1.1a.541.541,0,0,1,.044-.427,1.074,1.074,0,0,1,.321-.365.748.748,0,0,1,.421-.151.383.383,0,0,1,.353.208Q143.674-35.683,143.65-35.758Zm-1.2-4.376a.792.792,0,0,1,.39.358.729.729,0,0,1,.088.5.483.483,0,0,1-.258.352.514.514,0,0,1-.459,0,.783.783,0,0,1-.39-.358.723.723,0,0,1-.088-.5.462.462,0,0,1,.264-.352A.5.5,0,0,1,142.449-40.134Zm1.32,0a.788.788,0,0,1,.384.358.729.729,0,0,1,.088.5.447.447,0,0,1-.258.352.514.514,0,0,1-.459,0,.783.783,0,0,1-.39-.358.728.728,0,0,1-.088-.5.466.466,0,0,1,.264-.352A.514.514,0,0,1,143.769-40.134Z"/>
      <path id="Path_14594" data-name="Path 14594" d="M145.046-34.192v-.893a3.346,3.346,0,0,0,.868-.144.1.1,0,0,0-.044-.057,1.409,1.409,0,0,1-.579-.818.8.8,0,0,1,.258-.918.128.128,0,0,0,.031-.113.146.146,0,0,0-.075-.126,1.086,1.086,0,0,1-.7-.855q-.063-.565.641-.842a3.09,3.09,0,0,1,3.106.572,4.413,4.413,0,0,1,1.8,2.66,1.06,1.06,0,0,1-.478,1.2,2.354,2.354,0,0,1-1.484.27,3.326,3.326,0,0,1-1.352-.409,1.107,1.107,0,0,1-.132.044A7.154,7.154,0,0,1,145.046-34.192Zm.974-3.389a.192.192,0,0,0,.07.119c.046.046.081.067.107.063a1.821,1.821,0,0,1,1.144.006,1.644,1.644,0,0,1,.861.78,1.1,1.1,0,0,1-.132,1.094,1.292,1.292,0,0,0-.125.208.188.188,0,0,0,.05.226q.347.252.761-.157a.727.727,0,0,0,.283-.748,2.867,2.867,0,0,0-.9-1.566,1.9,1.9,0,0,0-1.673-.748A.661.661,0,0,0,146.02-37.581Zm.667,1.93q.364.083.56-.408a.5.5,0,0,0-.044-.516.652.652,0,0,0-.428-.264.437.437,0,0,0-.428.214.533.533,0,0,0-.132.477A.65.65,0,0,0,146.687-35.651Z"/>
      <path id="Path_14595" data-name="Path 14595" d="M156.3-36a1.453,1.453,0,0,1-1.107,1.685,1.932,1.932,0,0,1-.987.1,2.132,2.132,0,0,1-.937-.346,1.358,1.358,0,0,1-.566-.729,1.415,1.415,0,0,1,.1-1.05,3.481,3.481,0,0,1,.446-.6,1.625,1.625,0,0,0,.365-.629,3.011,3.011,0,0,0-.264-.5.821.821,0,0,1,1.025-.258,2.053,2.053,0,0,1,.855.554A2.93,2.93,0,0,1,156.3-36Zm-2.314-.56a2.3,2.3,0,0,0-.227.673.82.82,0,0,0,.214.673.8.8,0,0,0,.66.271q.479-.02.579-.579.094-.51-.711-1.629a.427.427,0,0,0-.144-.119c-.084-.042-.13-.029-.139.038A2.186,2.186,0,0,1,153.988-36.563Z"/>
      <path id="Path_14596" data-name="Path 14596" d="M160.15-37.135A3.71,3.71,0,0,1,160.9-34.9a2.826,2.826,0,0,1-.831,2.144,1.686,1.686,0,0,1-1.3.295,1.384,1.384,0,0,1-1.107-.572c-.067-.126-.105-.2-.113-.22a.4.4,0,0,1,.006-.157c.05-.08.115-.084.2-.013a1.2,1.2,0,0,0,1.17.283.954.954,0,0,0,.742-.905c.025-.122.012-.185-.038-.189a6.812,6.812,0,0,1-.692-.063,2.182,2.182,0,0,1-1.194-.509,2.258,2.258,0,0,1-.7-1.013,1.686,1.686,0,0,1-.007-1.157,1.818,1.818,0,0,1,.9-.962,1.886,1.886,0,0,1,.189-.056A1.916,1.916,0,0,1,160.15-37.135Zm-1.792,1.365a1.579,1.579,0,0,0,1.207.773c.055,0,.076-.037.063-.126q-.232-2.062-.949-2.244a.307.307,0,0,0-.384.207A1.378,1.378,0,0,0,158.358-35.77Z"/>
      <path id="Path_14597" data-name="Path 14597" d="M162.9-37.613c-.008.03-.031.042-.069.038-.155,0-.228.1-.22.314,0,.017.025.181.075.491a4.337,4.337,0,0,0,.195.654q.542,1.119,1.214,1.031v.893a1.338,1.338,0,0,1-.987-.233,2.605,2.605,0,0,1-.157,1.485,1.03,1.03,0,0,1-1.1.521,1.4,1.4,0,0,1-1.031-.716.165.165,0,0,1-.038-.076c0-.029.013-.042.038-.038a1.248,1.248,0,0,1,.289.107.73.73,0,0,0,.3.088q.835.008.528-1.459c-.017-.067-.075-.316-.176-.748q-.132-.559-.207-.924a2.518,2.518,0,0,1-.044-1.421.86.86,0,0,1,.679-.4.719.719,0,0,1,.7.315A.069.069,0,0,1,162.9-37.613Z"/>
      <path id="Path_14598" data-name="Path 14598" d="M163.137-38.248a.1.1,0,0,1-.038-.075.232.232,0,0,1,.076-.22,7.734,7.734,0,0,0,1.138-1.208,4.866,4.866,0,0,0,.692-1.471.215.215,0,0,1,.088-.132c.054-.034.084-.023.088.031a3.753,3.753,0,0,1-.654,1.679,6.269,6.269,0,0,1-1.321,1.39Q163.163-38.223,163.137-38.248Zm3.333-2.515a.955.955,0,0,1-.031.754,8.468,8.468,0,0,1-1.422,1.856.222.222,0,0,0-.044.15.171.171,0,0,0,.088.151,2.516,2.516,0,0,1,1.289.529,1.727,1.727,0,0,1,.862,1.609,1.487,1.487,0,0,1-1.157,1.378,8.322,8.322,0,0,1-1.924.144v-.893l.4.019a3.477,3.477,0,0,0,.522,0,1.021,1.021,0,0,0,.887-.5.774.774,0,0,0,.063-.484.64.64,0,0,0-.2-.4,6.779,6.779,0,0,0-2.063-.981.38.38,0,0,1-.258-.257.233.233,0,0,1,.044-.258,8.332,8.332,0,0,0,2.107-3.232.288.288,0,0,1,.189-.164.26.26,0,0,1,.245.006A1.144,1.144,0,0,1,166.47-40.763Z"/>
    </g>
  </g>
</svg>
