<svg xmlns="http://www.w3.org/2000/svg" viewBox="0 0 728.91 208.95" fill="#0075ff" xmlns:v="https://vecta.io/nano"><path d="M624.71.41a104.295 104.295 0 1 0-.16 208.59h.16a104.27 104.27 0 0 0 0-208.54zm87.48 64a68.75 68.75 0 0 1 3 7.16 95.07 95.07 0 0 1 4 14.25 71.78 71.78 0 0 0-8.34-6.73 67.65 67.65 0 0 0-28.15-11.25 70.64 70.64 0 0 0-16.7-.63 65.19 65.19 0 0 0-28.21 8.56 60.1 60.1 0 0 0-17.68 15.58l-.24-7.06a20.85 20.85 0 0 0-.07-2.09 38.43 38.43 0 0 1 .38-7.5 59.82 59.82 0 0 1 3.12-12.63 54 54 0 0 1 14.37-21.72l2.56-2.16.89-.74a27.63 27.63 0 0 0 3.8 1.72L711.13 64zm-92.69 45.42V99.58h10.23v10.25zm1.69 6.52c-.83 1-1.71 1.9-2.61 2.78a54 54 0 0 1-26.48 14.46 65.41 65.41 0 0 1-18 1.48 59.69 59.69 0 0 1-23.81-6.38 60.82 60.82 0 0 1-18.18-14q10.06-10.25 20.17-20.48a61.47 61.47 0 0 0 23 17.26 69 69 0 0 0 16.29 4.81 51.3 51.3 0 0 0 9.9.74l9-.31 1.66-.07zm7.09-22.63a47 47 0 0 1 4.72-4.78 54.7 54.7 0 0 1 27.12-13 63.49 63.49 0 0 1 14.1-1 60.66 60.66 0 0 1 43.21 20.5l-20.13 20.47a61.31 61.31 0 0 0-23.3-17.4 69.63 69.63 0 0 0-18.68-5.07 49.22 49.22 0 0 0-5.94-.38h-1.53q-8.55.31-17.13.57zm-3.76-85.36h0l2.79.05a96.06 96.06 0 0 1 79.17 45.44l-16.89-6.35-41.89-15.71a16.92 16.92 0 0 1-4.71-2.5l-1.59-1.39-19.85-19.47a59.99 59.99 0 0 1 2.97-.07zm-10.8 4.35h0l.44-.35 3.42 3.35q8.56 8.43 17.06 16.75a60.82 60.82 0 0 0-11.39 12.42A67.37 67.37 0 0 0 612 76.32a41.56 41.56 0 0 0-.17 5.69l.22 6.18.24 7.5.21 5.84a43.15 43.15 0 0 1-3.85-3.68 54.31 54.31 0 0 1-13.75-27 63.4 63.4 0 0 1-1.17-16 60.38 60.38 0 0 1 19.99-42.14zm-30.12 4.84l.15-.07.45-.21a95.55 95.55 0 0 1 20.55-6.83 78.06 78.06 0 0 0-5.56 6.61 68.06 68.06 0 0 0-12.14 27.57 72.56 72.56 0 0 0-1.12 18.25 69.86 69.86 0 0 0 3.27 17.25 61 61 0 0 0 18.58 27.71 16.15 16.15 0 0 0 1.31 1h-.53l-6.06.21A57.45 57.45 0 0 1 566.24 97a51.57 51.57 0 0 1-8.94-9.08l26.14-69.73zm-54.72 77.17h0A95.62 95.62 0 0 1 540 58.83a97.34 97.34 0 0 1 24.87-29.62c2.26-1.81 5.56-4.12 8.1-5.78l-3.4 9.09Q560 58.17 550.36 83.81a4.89 4.89 0 0 1-1.17 1.87l-13.91 14.21-6.85 7a112.61 112.61 0 0 1 .45-12.17zm9.12 51.82h-.12l-.14-.31-.12-.23a96.24 96.24 0 0 1-7.25-21.65l.5.47A67.89 67.89 0 0 0 574.14 143a71.4 71.4 0 0 0 11.23-.28 63.63 63.63 0 0 0 34.77-14.25 59.1 59.1 0 0 0 7.57-7.52v.16l.26 8.35a38.33 38.33 0 0 1-.52 6.68 59.86 59.86 0 0 1-4.4 15.3A53.34 53.34 0 0 1 607 172.3h-.07l-9.74-3.74-.33-.12-3.66-1.39q-17.92-6.75-35.85-13.46l-18.78-7zm87.53 54.55c-3 0-6-.07-8.93-.33a96.1 96.1 0 0 1-72.7-43.59l6.26 2.36L602 179l1 .4a5.2 5.2 0 0 1 1.69 1.12q7.65 7.6 15.34 15.15l5.5 5.43zm8.27-3.67l-6.3-6.16-14.2-13.91a60.64 60.64 0 0 0 15.56-19.74 67.88 67.88 0 0 0 6.14-18.72 51.8 51.8 0 0 0 .86-8.14v-3l-.19-5.76-.45-13.39a53.35 53.35 0 0 1 4.8 4.71 54.45 54.45 0 0 1 12.66 25.33 64.69 64.69 0 0 1 1.32 16.92 59.41 59.41 0 0 1-6.35 24 60.54 60.54 0 0 1-13.79 17.87zm33.38-6.3v.12l-.24.12-.57.26a95 95 0 0 1-23.1 7.65l1.74-1.92a68.07 68.07 0 0 0 15.82-32.95 72.79 72.79 0 0 0-2-33.36 61.65 61.65 0 0 0-17.63-27.71l-2.48-2.09 7.19-.23 2.3-.1h1.53a26.33 26.33 0 0 1 3.43.22 59.06 59.06 0 0 1 14.65 3.38 54.08 54.08 0 0 1 21 13.58 59.09 59.09 0 0 1 4 4.78l-.79 2.09-.57 1.59q-12 31.94-23.93 63.85zm23.93-16.69h0a120.38 120.38 0 0 1-13.21 10.62l16.37-43.68 5.73-15.3a4.45 4.45 0 0 1 .88-1.52l.17-.19.92-1q9.53-9.78 19-19.47a109.13 109.13 0 0 1-.29 7.9 96.19 96.19 0 0 1-29.55 62.64zM105 46.88a21.14 21.14 0 0 0-8-5.18 27.9 27.9 0 0 0-9.53-1.65 24.5 24.5 0 0 0-11 2.33 23 23 0 0 0-7.88 6.22 27.78 27.78 0 0 0-4.8 9.07 35.54 35.54 0 0 0-1.69 10.88 42.86 42.86 0 0 0 1.13 10.28 17.5 17.5 0 0 0 4 7.72 17.94 17.94 0 0 0 7.8 4.8A40.4 40.4 0 0 0 87.6 93h12.75a29.3 29.3 0 0 1-1.95 9 21.89 21.89 0 0 1-4.72 7.35 22.27 22.27 0 0 1-7.73 5 28.85 28.85 0 0 1-10.8 1.87h-14.8v13.08h15.7a35.85 35.85 0 0 0 15.3-3.15 34.77 34.77 0 0 0 11.48-8.48A36.88 36.88 0 0 0 110 105.3a44 44 0 0 0 2.47-14.7V69.9a41.42 41.42 0 0 0-2-13.8 24.92 24.92 0 0 0-5.47-9.22zm-4.35 32.92H88.8q-8.8 0-11.92-2.8-3.12-2.8-3.08-9.2 0-7 3.38-11 3.38-4 9.52-4 6.6 0 10.28 4.12 3.68 4.12 3.67 13.58zm30-79.8h12.3v93h-12.3zM272.1 18.6h13.65v12.6H272.1zm-241.2-.3h14.7v12.9H30.9zm1.95 72.3a30.47 30.47 0 0 1-1.5 9.52 22.76 22.76 0 0 1-4.73 8.18 23.46 23.46 0 0 1-8.24 5.78 31 31 0 0 1-12.23 2.17H0v13.05h9.15a35.57 35.57 0 0 0 14.25-2.85 33.32 33.32 0 0 0 11.4-8 38.4 38.4 0 0 0 7.58-12.3 42.61 42.61 0 0 0 2.77-15.55V49.65h-12.3zm448.05 19.5h13.2v12.6h-13.2zm4.1-60.45v19.2q0 5.25-3.07 8.1-3.07 2.85-8.53 2.85H372.15v-9.9a41.17 41.17 0 0 0-2-13.8 24.76 24.76 0 0 0-5.47-9.22 21.1 21.1 0 0 0-8-5.18 27.8 27.8 0 0 0-9.52-1.65 24.5 24.5 0 0 0-11 2.33 23 23 0 0 0-7.88 6.22 27.78 27.78 0 0 0-4.8 9.07 35.54 35.54 0 0 0-1.65 10.88 42.86 42.86 0 0 0 1.13 10.28 17.5 17.5 0 0 0 4 7.72 17.94 17.94 0 0 0 7.8 4.8A40.4 40.4 0 0 0 347.25 93H360a29.3 29.3 0 0 1-1.95 9 21.89 21.89 0 0 1-4.72 7.35 22.27 22.27 0 0 1-7.73 5 28.85 28.85 0 0 1-10.8 1.87h-14.71v13.08h15.6a36 36 0 0 0 14.7-2.92 34.28 34.28 0 0 0 11.25-7.88 36.39 36.39 0 0 0 7.29-11.5 42.25 42.25 0 0 0 2.92-14H385a3.53 3.53 0 0 0 .46 0h24.29a3.53 3.53 0 0 0 .46 0 3.08 3.08 0 0 0 .43 0h23.86a3.53 3.53 0 0 0 .46 0 3.08 3.08 0 0 0 .43 0h23.86a3.53 3.53 0 0 0 .46 0 3.08 3.08 0 0 0 .43 0h14.16q10.8 0 16.87-6.08 6.07-6.08 6.08-17.47v-19.8zM360.3 79.8h-11.85q-8.85 0-11.92-2.77-3.07-2.77-3.08-9.23 0-7 3.38-11 3.38-4 9.52-4 6.6 0 10.28 4.12 3.68 4.12 3.67 13.58zm-67.8-10.95q0 5.25-3.07 8.1-3.07 2.85-8.43 2.85h-89.6a12.54 12.54 0 0 1-8.47-2.8 9.65 9.65 0 0 1-3.23-7.73V49.65h-12.3V90.6a30.47 30.47 0 0 1-1.5 9.52 22.88 22.88 0 0 1-4.72 8.18 23.58 23.58 0 0 1-8.25 5.78 31 31 0 0 1-12.23 2.17h-10v13.05h13a34.93 34.93 0 0 0 14.18-2.85 32.74 32.74 0 0 0 11.24-8 37.85 37.85 0 0 0 7.43-12.3 43.44 43.44 0 0 0 2.7-15.52v-3.18a11.67 11.67 0 0 0 5.55 4.35 19.31 19.31 0 0 0 6.6 1.2h1.19a3.53 3.53 0 0 0 .46 0h24.29a3.53 3.53 0 0 0 .46 0 3.08 3.08 0 0 0 .43 0h23.86a3.53 3.53 0 0 0 .46 0 3.08 3.08 0 0 0 .43 0h23.86a3.53 3.53 0 0 0 .46 0 3.08 3.08 0 0 0 .43 0h14.12q10.8 0 16.88-6.08 6.08-6.08 6.07-17.47v-19.8h-12.3zm167.85 41.25h13.35v12.6h-13.35zM292.2 18.6h13.65v12.6H292.2zM1.45 168.07h8v21.32a45.48 45.48 0 0 0 .24 6.61 6.36 6.36 0 0 0 2.43 3.88 8.44 8.44 0 0 0 5.25 1.47 8 8 0 0 0 5.11-1.39 5.45 5.45 0 0 0 2.06-3.39 43.46 43.46 0 0 0 .35-6.69v-21.81h8v20.68a53.16 53.16 0 0 1-.64 10 11.07 11.07 0 0 1-2.38 5 12.06 12.06 0 0 1-4.63 3.21 20.28 20.28 0 0 1-7.57 1.19q-5.64 0-8.56-1.3a12.25 12.25 0 0 1-4.6-3.39 10.8 10.8 0 0 1-2.23-4.36 47.8 47.8 0 0 1-.78-10zM106 207.77v-32.71H94.33v-6.66h31.28v6.66H114v32.71zm79.1 0V168.4h16.73c4.2 0 7.26.36 9.17 1.06a9.07 9.07 0 0 1 4.58 3.78 11.38 11.38 0 0 1 1.72 6.2 10.48 10.48 0 0 1-2.61 7.32c-1.74 1.92-4.33 3.14-7.79 3.64a18.47 18.47 0 0 1 4.26 3.3 45 45 0 0 1 4.53 6.39l4.8 7.68H211l-5.75-8.56a56.41 56.41 0 0 0-4.19-5.79 6.12 6.12 0 0 0-2.39-1.64 13.31 13.31 0 0 0-4-.44h-1.61v16.43zm8-22.72h5.88q5.72 0 7.14-.48a4.31 4.31 0 0 0 2.23-1.66 5.13 5.13 0 0 0 .81-3 4.73 4.73 0 0 0-1.07-3.21 4.83 4.83 0 0 0-3-1.54c-.64-.09-2.58-.14-5.8-.14h-6.2zm122.27 22.72h-8.65l-3.43-8.94h-15.74l-3.25 8.94h-8.43l15.33-39.37h8.41zm-14.64-15.57l-5.42-14.61L290 192.2zm83.46 15.57l-14.08-39.37h8.62l10 29.14 9.64-29.14h8.43l-14.1 39.37zM465.26 195l7.74-.75a9.45 9.45 0 0 0 2.83 5.72 8.54 8.54 0 0 0 5.76 1.83 8.88 8.88 0 0 0 5.79-1.63 4.85 4.85 0 0 0 1.94-3.8 3.59 3.59 0 0 0-.82-2.38 6.45 6.45 0 0 0-2.86-1.7c-.93-.32-3.05-.9-6.36-1.72q-6.39-1.59-9-3.89a10.25 10.25 0 0 1-3.63-7.93 10.08 10.08 0 0 1 1.71-5.62 10.64 10.64 0 0 1 4.91-4 19.79 19.79 0 0 1 7.75-1.37q7.41 0 11.16 3.25a11.45 11.45 0 0 1 3.93 8.67l-7.94.35a6.73 6.73 0 0 0-2.19-4.36 8 8 0 0 0-5-1.33 9 9 0 0 0-5.42 1.42 2.89 2.89 0 0 0-1.27 2.45 3 3 0 0 0 1.19 2.39c1 .84 3.43 1.71 7.3 2.63a38.6 38.6 0 0 1 8.58 2.83 11.14 11.14 0 0 1 4.35 4 11.69 11.69 0 0 1 1.57 6.27 11.54 11.54 0 0 1-1.88 6.34 11.25 11.25 0 0 1-5.31 4.39 22.3 22.3 0 0 1-8.57 1.44Q474 208.46 470 205q-4-3.46-4.74-10z"/></svg>