<svg xmlns="http://www.w3.org/2000/svg" viewBox="0 0 595.28 841.89" fill="#314488" xmlns:v="https://vecta.io/nano"><path d="M510.51 434.66c-8.14 12.59-17.14 20.7-32.25 20.42-26.6-.49-53.22-.18-79.83-.07-3.04.01-8.19-1.53-8.36 2.64-.18 4.54 5.01 3.52 8.28 3.52l79.83.04h6.27c-6.89 11.38-14.87 19.88-27.92 20.05-30.41.39-60.84.66-91.23-.12-17.33-.44-28.73-10.9-36.31-26.78 33.2-14.72 60.33-34.95 68.74-72.74h163.78c-7.4 11.22-14.61 20.23-29.77 19.94-35.52-.68-71.07-.22-106.61-.21-1.65 0-3.41-.26-4.92.23-1.38.45-2.48 1.75-3.71 2.67 1.2 1.17 2.21 2.77 3.64 3.4 1.4.62 3.24.33 4.89.33l104.13.01h5.44c-4.3 12.47-14.99 20.29-27.26 20.29-32.23.01-64.46-.01-96.69.03-2.85 0-7.26-.84-7.33 2.92-.08 4.24 4.46 3.37 7.44 3.38l93.22.03 6.53.02zM62.68 408h6.43l103.15-.04c3.26-.01 8.37 1.04 8.22-3.65-.14-4.28-5.19-2.9-8.25-2.91-35.21-.09-70.43-.46-105.63.17-11.65.21-19.61-4.32-26.05-13.09-1.52-2.07-2.88-4.24-4.68-6.9h163.69c8.37 37.53 35.29 57.97 68.19 72.47-3.77 13.45-18.56 25.53-32.94 27.01-4.26.44-8.58.35-12.88.36-26.12.03-52.24-.06-78.36.04-14.28.06-23.15-7.84-30.48-19.97 2.39-.11 4.09-.27 5.79-.27l80.84-.04c3.01-.01 7.63.76 7.59-3.29-.05-4.33-4.79-2.87-7.63-2.88l-82.32-.01c-14.44.09-22.71-8.53-30.38-20.06 2.63-.12 4.37-.26 6.1-.26l93.23-.04c3 0 7.62.88 7.7-3.12.08-4.16-4.57-3.17-7.52-3.18l-95.71-.04c-12.94 0-23.1-7.15-28.1-20.3zm213.05 202.01h-5.69-26.14l-2.19-12.31-5.76-.33c-8.1-.04-16.2.13-24.3-.08-3.25-.08-5.58.67-6.28 4.02-1.56 7.56-6.22 9.5-13.55 8.86-7.83-.68-15.78-.15-24.3-.15.91-2.11 1.48-3.61 2.18-5.05l47.95-97.74c1.48-3.04 3.09-4.41 6.67-4.31 9.74.28 19.48.1 29.78.1l21.63 106.99zm-59.98-35.14h22.39l-5.47-37.54-1.21-.03-15.71 37.57zm161.3 35.14l9.98-20.58 40.29-82.22c1.49-3.06 3.11-4.4 6.69-4.3 9.73.28 19.47.1 29.77.1l21.58 106.64h-32.02l-2-12.24c-11.04 0-21.76-.13-32.47.17-1.31.04-3.32 2.26-3.68 3.78-1.78 7.5-6.33 9.45-13.65 8.8-7.84-.69-15.79-.15-24.49-.15zm48.44-35.17h22.37l-5.52-37.52-1.21.01-15.64 37.51zm-105.23-45.42h-30.44l5.08-26.73h93.41l-5.08 26.54h-28.99l-11.72 80.48h-34.13l11.87-80.29zM131.95 503.2h34.68l-21.2 106.5h-34.67l21.19-106.5zm248.89-153.06h-34.88l-9.66-41.64 20.57-13.11c14.64 14.88 22.73 32.94 23.97 54.75zm-129.41-.08h-34.84c1.32-21.43 9.26-39.49 23.9-54.65l20.85 13.18-9.91 41.47zm9.93 48.88l-20.87 13.15c-14.46-15.17-22.55-33.23-23.88-54.84h34.86l9.89 41.69zm75.03.09l9.58-41.75h34.82c-1.21 21.62-9.55 39.58-23.89 54.86l-20.51-13.11zm-7.21-87.46c5.41 11.9 8.51 24.55 8.76 38.37h-35.56v-32.85l26.8-5.52zm-33.79 5.55v32.9h-35.7c-.11-13.58 3.17-26.38 8.42-38.45l27.28 5.55zm42.5 40.23c-.13 13.74-3.3 26.3-8.65 38.35l-26.85-5.54v-32.8l35.5-.01zm-42.5-.07v32.84l-27.14 5.54c-5.74-11.86-8.24-24.65-8.79-38.37l35.93-.01zm56.89-66.34l-18.99 12.12-23.9-30.93c15.38 2.08 29.38 8.26 42.89 18.81zm-88.29 12.15l-18.86-12.06c13.25-10.68 27.29-16.62 42.91-18.93l-24.05 30.99zm88.29 113.06c-13.55 11.01-27.77 16.79-42.94 18.99l23.93-30.6 19.01 11.61zm-88.3-11.81l23.7 30.38c-10.66.15-30.2-8-42.15-18.42l18.45-11.96zm62.17-98.35l-23.86 4.61v-34.99c9.95 8.5 17.69 17.92 23.86 30.38zm-23.8 90.95l23.74 4.44c-6.1 12.27-13.72 21.78-23.74 30.54v-34.98zm-6.98-.06v34.85c-10.31-8.48-17.9-18.04-24.16-30.47l24.16-4.38zm-23.43-91.45c3.89-9.71 14.39-22.94 23.31-29.42v33.57c-8.16.7-15.69-1.7-23.31-4.15z"/></svg>