<svg xmlns="http://www.w3.org/2000/svg" width="150" height="54" viewBox="0 0 150 54">
  <g id="Group_11272" data-name="Group 11272" transform="translate(-1140 -3734)">
    <g id="Rectangle_3759" data-name="Rectangle 3759" transform="translate(1140 3734)" fill="#fff" stroke="#2b475a" stroke-width="2">
      <rect width="150" height="54" rx="15" stroke="none"/>
      <rect x="1" y="1" width="148" height="52" rx="14" fill="none"/>
    </g>
    <g id="instagram" transform="translate(1248.816 3746.75)">
      <path id="Path_10976" data-name="Path 10976" d="M28.377,8.232a10.229,10.229,0,0,0-.651-3.4,7.173,7.173,0,0,0-4.1-4.1,10.261,10.261,0,0,0-3.4-.651C18.732.016,18.256,0,14.454,0S10.176.016,8.682.082a10.238,10.238,0,0,0-3.4.651A6.833,6.833,0,0,0,2.8,2.352,6.894,6.894,0,0,0,1.187,4.83a10.257,10.257,0,0,0-.651,3.4C.465,9.725.449,10.2.449,14s.016,4.277.082,5.771a10.229,10.229,0,0,0,.651,3.4,7.172,7.172,0,0,0,4.1,4.1,10.263,10.263,0,0,0,3.4.651c1.493.066,1.97.082,5.772.082s4.278-.016,5.772-.082a10.232,10.232,0,0,0,3.4-.651,7.163,7.163,0,0,0,4.1-4.1,10.264,10.264,0,0,0,.651-3.4c.066-1.493.082-1.969.082-5.771s-.006-4.277-.071-5.771ZM25.855,19.664a7.673,7.673,0,0,1-.481,2.6,4.645,4.645,0,0,1-2.659,2.658,7.7,7.7,0,0,1-2.6.481c-1.477.066-1.92.082-5.657.082S10.274,25.468,8.8,25.4a7.674,7.674,0,0,1-2.6-.481A4.309,4.309,0,0,1,4.6,23.876a4.353,4.353,0,0,1-1.045-1.608,7.7,7.7,0,0,1-.481-2.6c-.066-1.477-.082-1.92-.082-5.656S3,9.829,3.069,8.358a7.669,7.669,0,0,1,.481-2.6A4.256,4.256,0,0,1,4.6,4.152,4.347,4.347,0,0,1,6.209,3.107a7.71,7.71,0,0,1,2.6-.481c1.477-.066,1.92-.082,5.657-.082s4.185.016,5.657.082a7.677,7.677,0,0,1,2.6.481,4.306,4.306,0,0,1,1.608,1.045A4.352,4.352,0,0,1,25.374,5.76a7.7,7.7,0,0,1,.481,2.6c.066,1.477.082,1.92.082,5.656s-.016,4.174-.082,5.65Zm0,0" transform="translate(-0.449 0)" fill="#2b475a"/>
      <path id="Path_10977" data-name="Path 10977" d="M132.076,124.5a7.124,7.124,0,1,0,7.127,7.124A7.127,7.127,0,0,0,132.076,124.5Zm0,11.746a4.621,4.621,0,1,1,4.623-4.621A4.623,4.623,0,0,1,132.076,136.245Zm0,0" transform="translate(-118.07 -117.621)" fill="#2b475a"/>
      <path id="Path_10978" data-name="Path 10978" d="M365.842,90.3a1.7,1.7,0,1,1-1.7-1.7A1.7,1.7,0,0,1,365.842,90.3Zm0,0" transform="translate(-342.672 -83.762)" fill="#2b475a"/>
    </g>
    <path id="Path_13471" data-name="Path 13471" d="M-75.548,0a3.71,3.71,0,0,1-2.486-.8,2.9,2.9,0,0,1-.946-2.343V-4.268A4.132,4.132,0,0,1-78.87-5.3a1.314,1.314,0,0,1,.418-.682h-.506a2.337,2.337,0,0,0-1.562.44,1.6,1.6,0,0,0-.506,1.276V5.324H-83.27v-9.68a4.1,4.1,0,0,1,.275-1.485,3.754,3.754,0,0,1,.8-1.265,3.857,3.857,0,0,1,1.32-.88,4.779,4.779,0,0,1,1.848-.33h3.982a4.161,4.161,0,0,1,1.551.253,2.783,2.783,0,0,1,1.023.682,2.459,2.459,0,0,1,.561,1,4.345,4.345,0,0,1,.165,1.21v1.936a3.294,3.294,0,0,1-.3,1.463,2.788,2.788,0,0,1-.814,1,3.439,3.439,0,0,1-1.21.583A5.681,5.681,0,0,1-75.548,0Zm.176-2.42a1.647,1.647,0,0,0,1.133-.33,1.158,1.158,0,0,0,.363-.9V-4.6a1.429,1.429,0,0,0-.3-.935,1.2,1.2,0,0,0-.979-.363h-.462a1.122,1.122,0,0,0-.935.374,1.474,1.474,0,0,0-.3.946v.88a1.263,1.263,0,0,0,.341.935A1.562,1.562,0,0,0-75.372-2.42Zm6.2-11.22h2.244V0h-2.244ZM-61.446-.352a6.16,6.16,0,0,1-.4,2.222,5.73,5.73,0,0,1-1.089,1.8,5.01,5.01,0,0,1-1.65,1.21,4.916,4.916,0,0,1-2.079.44h-1.386l-.11-2.4h.924a4.57,4.57,0,0,0,1.683-.275,3.131,3.131,0,0,0,1.133-.737A2.8,2.8,0,0,0-63.778.858a3.8,3.8,0,0,0,.2-1.21V-6.446h2.244v2.618a1.286,1.286,0,0,0,.429,1.056,1.66,1.66,0,0,0,1.089.352h.242q.484,0,.484,1.166Q-59.092,0-59.576,0h-.242a2.833,2.833,0,0,1-.88-.143,1.463,1.463,0,0,1-.748-.583Zm3.476-14.3,6.622-2.508L-51-15.576l-6.864,2.64ZM-54.12-2.42a1.12,1.12,0,0,0,.825-.242.828.828,0,0,0,.231-.594,1.816,1.816,0,0,0-.121-.649A1.988,1.988,0,0,0-53.7-4.6L-57.86-8.756v-2.508l7.282-2.75.506,2.244L-55.682-9.7l3.234,3.278a11.176,11.176,0,0,1,.9,1,4.9,4.9,0,0,1,.55.858,3.233,3.233,0,0,1,.275.814,4.548,4.548,0,0,1,.077.847,3.14,3.14,0,0,1-.253,1.32,2.492,2.492,0,0,1-.682.9,2.757,2.757,0,0,1-1.012.517A4.63,4.63,0,0,1-53.856,0h-5.72a.382.382,0,0,1-.385-.3,2.9,2.9,0,0,1-.1-.869,3.328,3.328,0,0,1,.1-.946.384.384,0,0,1,.385-.308ZM-45.012,0a4.15,4.15,0,0,1-1.177-.165,2.378,2.378,0,0,1-.979-.561,2.72,2.72,0,0,1-.66-1.045,4.667,4.667,0,0,1-.242-1.617V-13.64h2.244v9.7a1.756,1.756,0,0,0,.319,1.111,1.141,1.141,0,0,0,.957.407h.506q.484,0,.484,1.166Q-43.56,0-44.044,0ZM-42.5-2.42A1.284,1.284,0,0,0-41.03-3.85v-2.6h2.266v2.6a1.246,1.246,0,0,0,.473,1.1,1.893,1.893,0,0,0,1.111.33h.572q.506,0,.506,1.166Q-36.1,0-36.608,0h-.638a4.026,4.026,0,0,1-1.518-.275,2.548,2.548,0,0,1-1.188-1.111A2.848,2.848,0,0,1-41.14-.275,3.409,3.409,0,0,1-42.5,0h-1.54a.382.382,0,0,1-.385-.3,2.9,2.9,0,0,1-.1-.869,3.328,3.328,0,0,1,.1-.946.384.384,0,0,1,.385-.308Zm5.038-6.6h-2.288v-2.156h2.288Zm-3.146,0H-42.9v-2.156h2.288Zm4.972,6.6q1.518,0,1.518-1.43v-2.6H-31.9v2.6a1.246,1.246,0,0,0,.473,1.1,1.856,1.856,0,0,0,1.089.33q1.65,0,1.65-1.43v-2.6h2.244v2.6a1.338,1.338,0,0,0,.407,1.1,1.473,1.473,0,0,0,.957.33,1.245,1.245,0,0,0,1.386-1.43v-2.6h2.244v2.6a1.246,1.246,0,0,0,.473,1.1,1.821,1.821,0,0,0,1.067.33h.506a.382.382,0,0,1,.385.3,2.9,2.9,0,0,1,.1.869,3.329,3.329,0,0,1-.1.946A.384.384,0,0,1-19.4,0h-.506a4.111,4.111,0,0,1-1.529-.275,2.535,2.535,0,0,1-1.2-1.111,2.672,2.672,0,0,1-1.2,1.111A3.3,3.3,0,0,1-25.08,0a3.442,3.442,0,0,1-1.4-.275A2.632,2.632,0,0,1-27.61-1.386,2.616,2.616,0,0,1-28.853-.275,4.1,4.1,0,0,1-30.338,0a4.111,4.111,0,0,1-1.529-.275,2.535,2.535,0,0,1-1.2-1.111A2.689,2.689,0,0,1-34.254-.275,3.624,3.624,0,0,1-35.662,0h-.946a.382.382,0,0,1-.385-.3,2.9,2.9,0,0,1-.1-.869,3.328,3.328,0,0,1,.1-.946.384.384,0,0,1,.385-.308Zm17.776,0A1.284,1.284,0,0,0-16.39-3.85v-2.6h2.266v2.6a1.246,1.246,0,0,0,.473,1.1,1.893,1.893,0,0,0,1.111.33h.572q.506,0,.506,1.166Q-11.462,0-11.968,0h-.638a4.025,4.025,0,0,1-1.518-.275,2.548,2.548,0,0,1-1.188-1.111A2.848,2.848,0,0,1-16.5-.275,3.409,3.409,0,0,1-17.864,0H-19.4a.382.382,0,0,1-.385-.3,2.9,2.9,0,0,1-.1-.869,3.329,3.329,0,0,1,.1-.946A.384.384,0,0,1-19.4-2.42Zm3.652-6.6H-16.7v-2.244h2.486Zm4.268,6.6A1.284,1.284,0,0,0-8.47-3.85v-2.6h2.244V-3.7A3.772,3.772,0,0,1-7.15-.935,3.486,3.486,0,0,1-9.746,0h-2.222a.382.382,0,0,1-.385-.3,2.9,2.9,0,0,1-.1-.869,3.328,3.328,0,0,1,.1-.946.384.384,0,0,1,.385-.308Zm3.41,7.04H-8.8V2.464h2.266Zm-3.168,0h-2.266V2.464H-9.7Zm6.05-18.26h2.244V0H-3.652Z" transform="translate(1240 3765)" fill="#2b475a"/>
  </g>
</svg>
