<svg xmlns="http://www.w3.org/2000/svg" width="163.693" height="46.92" viewBox="0 0 163.693 46.92">
  <g id="Group_13075" data-name="Group 13075" transform="translate(22226.313 21892)">
    <g id="Group_12970" data-name="Group 12970" transform="translate(-22227.33 -21491.273)">
      <path id="Path_14402" data-name="Path 14402" d="M4.348-358.24s7.767-3.746,10.873,3.746C15.221-354.494,7.866-353.626,4.348-358.24Z"/>
      <path id="Path_14403" data-name="Path 14403" d="M16.219-365.008s-4.527,7.338,2.6,11.2C18.823-353.807,20.446-361.033,16.219-365.008Z"/>
      <path id="Path_14404" data-name="Path 14404" d="M12.688-371.812s-5.818,5.067-.751,10.263C11.937-361.549,15.243-367.293,12.688-371.812Z"/>
      <path id="Path_14405" data-name="Path 14405" d="M10.8-378.322s-5.863,2.646-3.067,8.012C7.733-370.31,11.753-374.1,10.8-378.322Z"/>
      <path id="Path_14406" data-name="Path 14406" d="M10.946-384.107s-5.492.39-4.835,5.527C6.111-378.58,10.461-380.434,10.946-384.107Z"/>
      <path id="Path_14407" data-name="Path 14407" d="M12.2-389.68S7.875-390.3,7.525-386.2C7.525-386.2,11.213-386.909,12.2-389.68Z"/>
      <path id="Path_14408" data-name="Path 14408" d="M13.515-394.3s-3.377-.482-3.65,2.715C9.865-391.583,12.741-392.137,13.515-394.3Z"/>
      <path id="Path_14409" data-name="Path 14409" d="M14.414-397.821s-2.29-.327-2.476,1.841A3.507,3.507,0,0,0,14.414-397.821Z"/>
      <path id="Path_14410" data-name="Path 14410" d="M1.765-370.31s7.162-.146,6.92,6.587C8.685-363.723,2.828-365.608,1.765-370.31Z"/>
      <path id="Path_14411" data-name="Path 14411" d="M1.02-379.153s5.959,1.375,4.352,6.9C5.372-372.255.918-375.039,1.02-379.153Z"/>
      <path id="Path_14412" data-name="Path 14412" d="M3.335-387.776s4.037,2.537,1.441,6.194C4.776-381.582,2.208-384.772,3.335-387.776Z"/>
      <path id="Path_14413" data-name="Path 14413" d="M6.426-393.868s3.083,2.527.546,5.288C6.972-388.58,5.176-391.495,6.426-393.868Z"/>
      <path id="Path_14414" data-name="Path 14414" d="M9.072-397.581s2.319,1.9.41,3.979C9.482-393.6,8.131-395.8,9.072-397.581Z"/>
      <path id="Path_14415" data-name="Path 14415" d="M12.241-400.727a1.831,1.831,0,0,1-.373,2.683A3.08,3.08,0,0,1,12.241-400.727Z"/>
      <path id="Path_14416" data-name="Path 14416" d="M63.349-358.24s-7.766-3.746-10.873,3.746C52.476-354.494,59.831-353.626,63.349-358.24Z"/>
      <path id="Path_14417" data-name="Path 14417" d="M51.478-365.008s4.527,7.338-2.6,11.2C48.874-353.807,47.252-361.033,51.478-365.008Z"/>
      <path id="Path_14418" data-name="Path 14418" d="M55.009-371.812s5.818,5.067.751,10.263C55.76-361.549,52.454-367.293,55.009-371.812Z"/>
      <path id="Path_14419" data-name="Path 14419" d="M56.9-378.322s5.863,2.646,3.067,8.012C59.964-370.31,55.944-374.1,56.9-378.322Z"/>
      <path id="Path_14420" data-name="Path 14420" d="M56.751-384.107s5.492.39,4.835,5.527C61.586-378.58,57.236-380.434,56.751-384.107Z"/>
      <path id="Path_14421" data-name="Path 14421" d="M55.493-389.68s4.329-.617,4.679,3.481C60.172-386.2,56.484-386.909,55.493-389.68Z"/>
      <path id="Path_14422" data-name="Path 14422" d="M54.182-394.3s3.377-.482,3.651,2.715C57.833-391.583,54.956-392.137,54.182-394.3Z"/>
      <path id="Path_14423" data-name="Path 14423" d="M53.283-397.821s2.29-.327,2.476,1.841A3.507,3.507,0,0,1,53.283-397.821Z"/>
      <path id="Path_14424" data-name="Path 14424" d="M65.932-370.31s-7.161-.146-6.919,6.587C59.013-363.723,64.869-365.608,65.932-370.31Z"/>
      <path id="Path_14425" data-name="Path 14425" d="M66.677-379.153s-5.958,1.375-4.352,6.9C62.325-372.255,66.779-375.039,66.677-379.153Z"/>
      <path id="Path_14426" data-name="Path 14426" d="M64.363-387.776s-4.038,2.537-1.442,6.194C62.921-381.582,65.49-384.772,64.363-387.776Z"/>
      <path id="Path_14427" data-name="Path 14427" d="M61.271-393.868s-3.082,2.527-.546,5.288C60.725-388.58,62.521-391.495,61.271-393.868Z"/>
      <path id="Path_14428" data-name="Path 14428" d="M58.625-397.581s-2.319,1.9-.41,3.979C58.215-393.6,59.566-395.8,58.625-397.581Z"/>
      <path id="Path_14429" data-name="Path 14429" d="M55.457-400.727a1.83,1.83,0,0,0,.372,2.683A3.082,3.082,0,0,0,55.457-400.727Z"/>
      <g id="Group_12967" data-name="Group 12967">
        <path id="Path_14430" data-name="Path 14430" d="M29.373-367.143H20.926v-27.75H25.85a3.568,3.568,0,0,1,3.517,3.2l.006.112Zm-6.4-2.051h4.345v-22.319a1.492,1.492,0,0,0-1.5-1.33H22.977Z"/>
      </g>
      <g id="Group_12968" data-name="Group 12968">
        <path id="Path_14431" data-name="Path 14431" d="M35.769-360.83H27.322v-27.75h4.924a3.568,3.568,0,0,1,3.517,3.2l.006.112Zm-6.4-2.051h4.345V-385.2a1.493,1.493,0,0,0-1.5-1.331H29.373Z"/>
      </g>
      <g id="Group_12969" data-name="Group 12969">
        <path id="Path_14432" data-name="Path 14432" d="M41.134-360.874H34.158v-18.391l.308-.3c.251-.246,6.188-6,10.8-6.138l1.056-.03L46.3-366.462a7.906,7.906,0,0,1-5.007,5.537Zm-4.925-2.051H40.8a5.823,5.823,0,0,0,3.47-3.882V-383.5c-2.87.7-6.469,3.621-8.061,5.107Z"/>
      </g>
    </g>
    <g id="Group_12974" data-name="Group 12974" transform="translate(-22227.33 -21491.273)">
      <g id="Group_12971" data-name="Group 12971">
        <path id="Path_14433" data-name="Path 14433" d="M109.9-386.369a1.571,1.571,0,0,1-1.339-.919,28.774,28.774,0,0,1,.117,3.1,2.7,2.7,0,0,1-.791,2.072,3.8,3.8,0,0,1-3.032,1.291q-2.708,0-2.923-2.943a6.078,6.078,0,0,1,.45-1.818q.489-1.428.763-1.428a.113.113,0,0,1,.088.049.3.3,0,0,1,0,.371,6.122,6.122,0,0,0-.557,2.005q0,2.043,2.179,2.043a3.432,3.432,0,0,0,3.266-1.642q-.138-2.348-.567-5.818-.41-3.2-.811-6.394.028-.283.195-1.241c.013-.059.033-.091.059-.1.1,0,.212.2.342.6a22.229,22.229,0,0,1,.6,3.364,32.628,32.628,0,0,0,.625,3.773q.489,1.829,1.339,2.014Z"/>
        <path id="Path_14434" data-name="Path 14434" d="M110.626-396.673a1.354,1.354,0,0,1-.133.655c-.12.339-.229.511-.326.518a2.267,2.267,0,0,1-.656-.313q-.528-.323-.567-.489a3.823,3.823,0,0,1,.577-1.241A3.492,3.492,0,0,1,110.626-396.673Zm3.216,10.3a2.409,2.409,0,0,1-1-.356,2.415,2.415,0,0,0-.953-.357,2.1,2.1,0,0,0-.851.366,2.209,2.209,0,0,1-1.134.367v-1.643a4.471,4.471,0,0,0,1.134-.352,3.68,3.68,0,0,1,.645-.3.7.7,0,0,1,.167-.019,2.772,2.772,0,0,1,.992.337,2.762,2.762,0,0,0,1,.337Zm-1.525-11.008a2.107,2.107,0,0,1-.176.625c-.143.378-.3.577-.469.6a1.1,1.1,0,0,1-.607-.352,2.708,2.708,0,0,1-.479-.548q.411-1.085.665-1.192a1.738,1.738,0,0,1,.538.3C112.108-397.716,112.285-397.527,112.317-397.377Z"/>
        <path id="Path_14435" data-name="Path 14435" d="M121.009-388.354q-.167.255-.322.519a1.045,1.045,0,0,1-.793.254,5.044,5.044,0,0,1-.742-.068q-.88-.138-.959-.157c-.026-.006-.189-.062-.489-.166l-2.072,1.095a4.191,4.191,0,0,1-1.789.508v-1.623a5.852,5.852,0,0,0,1.544-.293,4.139,4.139,0,0,0,1.1-.459,3.164,3.164,0,0,0-.283-.528,1.007,1.007,0,0,1-.166-.489.711.711,0,0,1,.039-.235,4.143,4.143,0,0,1,.39-.792,2.089,2.089,0,0,0,.294-.664.585.585,0,0,1-.176-.5,1.959,1.959,0,0,1,.215-.89q.234-.469.519-.459a3.6,3.6,0,0,1,2.268,1.486q.879,1,1.095,1.3a2.561,2.561,0,0,1,.586,1.418A1.187,1.187,0,0,1,121.009-388.354Zm-2.884-1.7q-.078-.9-.616-.9a1.86,1.86,0,0,0-.538.46,1.291,1.291,0,0,0-.391.792.477.477,0,0,0,.049.214,2.863,2.863,0,0,0,.978.2Q118.154-389.723,118.125-390.055Zm2.327,1.262q.019-.342-.733-1.1a6.956,6.956,0,0,0-1.047-.909,6.242,6.242,0,0,1-.166,1.769c.013,0,.3.068.87.206a4.044,4.044,0,0,0,.832.146C120.364-388.676,120.445-388.715,120.452-388.793Z"/>
        <path id="Path_14436" data-name="Path 14436" d="M128.947-389.047a2.932,2.932,0,0,1-1.261,2.639,4.165,4.165,0,0,0-.723.225,1.724,1.724,0,0,1-.577.117,1.017,1.017,0,0,1-.837-.474,1.86,1.86,0,0,1-.346-1.129,6.613,6.613,0,0,1,.6-2.082,8.348,8.348,0,0,1,1.007-1.926,5.773,5.773,0,0,1,1.6,1.1A2.19,2.19,0,0,1,128.947-389.047Zm-1.183.772a1.112,1.112,0,0,0-.352-.811,1.341,1.341,0,0,0-.831-.4,1.415,1.415,0,0,0-.46,1.017c0,.19.189.342.568.46Q127.559-388.011,127.764-388.275Z"/>
        <path id="Path_14437" data-name="Path 14437" d="M135.44-388.715a11.514,11.514,0,0,1-.646,3.275,10.63,10.63,0,0,1-1.691,2.307,3.218,3.218,0,0,1-2.259.949,27.776,27.776,0,0,1-2.972-.43c-.13-.027-.195-.085-.195-.177,0-.169.091-.254.273-.254a8.214,8.214,0,0,0,1.672-.107,7.877,7.877,0,0,0,3.031-1.5,6.442,6.442,0,0,0,1.985-2.591,1.235,1.235,0,0,0-.157-.919,4.89,4.89,0,0,1-.332.812.827.827,0,0,1-.743.43,1.342,1.342,0,0,1-1.1-.558,1.3,1.3,0,0,1-.323-.967,4.843,4.843,0,0,1,.519-1.7,2.634,2.634,0,0,1,1.085-1.163q.626,0,1.251.9A3.033,3.033,0,0,1,135.44-388.715Zm-1.585-.225a.589.589,0,0,0-.635-.362,1.383,1.383,0,0,0-.176.362c.013.183.18.274.5.274C133.634-388.666,133.738-388.757,133.855-388.94Z"/>
        <path id="Path_14438" data-name="Path 14438" d="M141.862-386.369q-.664-.059-1.036-.117a4.508,4.508,0,0,1,.01.518,5.682,5.682,0,0,1-1.075,3.324,3.921,3.921,0,0,1-1.956,1.457,19.112,19.112,0,0,1-2.5-.117q-.4-.147-.4-.274,0-.156,1.183-.518a13.16,13.16,0,0,0,2.347-.929,3.518,3.518,0,0,0,1.75-1.877,4.494,4.494,0,0,0-.381-2.112q-.294-.537-.577-1.075.039-.372.088-.665a2.05,2.05,0,0,1,.293-.88.114.114,0,0,1,.049-.029q.1,0,.42.508a2.916,2.916,0,0,0,.587.743,8.789,8.789,0,0,0,1.2.42Z"/>
        <path id="Path_14439" data-name="Path 14439" d="M164.642-389.937q-.392,1.329-.987,1.505-.108.03-1.985.323a122.558,122.558,0,0,1-17.842,1.74h-1.966v-1.623q2.659,0,5.133-.1,3.1-.128,6.619-.529,6.54-.762,6.6-.772,1.153-.156,3.2-.342-.02-.586-1.232-.987a4.594,4.594,0,0,0-1.241-.284q.459,0-5.153.533t-9.053.533a22.129,22.129,0,0,1-3.324-.2q-1.534-.243-1.535-.977a3.979,3.979,0,0,1,.822-1.491,14.877,14.877,0,0,1,1.691-2,16.4,16.4,0,0,1,5.807-3.187.842.842,0,0,1,.254-.058c.078,0,.117.032.117.1a1.568,1.568,0,0,1-.205.479c-.136.2-.3.463-.489.782q-.948.372-3.02,1.4a15.2,15.2,0,0,0-3.931,2.943,8.08,8.08,0,0,0,4.057.714q.675,0,3.784-.127,2.268-.088,9.649-.821c.359-.033.678-.049.959-.049a11.428,11.428,0,0,1,1.594.234q1.749.686,1.75,1.819A1.5,1.5,0,0,1,164.642-389.937Zm-15.164-8.476q-2.365.654-7.479,5.025a.055.055,0,0,1-.039.019c-.059,0-.078-.117-.059-.352a.67.67,0,0,1,.128-.44q4.389-3.93,7.381-4.9c.091-.032.147.062.166.284S149.563-398.439,149.478-398.413Z"/>
      </g>
      <g id="Group_12972" data-name="Group 12972">
        <path id="Path_14440" data-name="Path 14440" d="M83.231-362.225q-.812-.072-1.265-.144a5.73,5.73,0,0,1,.012.633,6.935,6.935,0,0,1-1.312,4.056A4.783,4.783,0,0,1,78.28-355.9a23.256,23.256,0,0,1-3.055-.143c-.326-.119-.489-.231-.489-.334q0-.191,1.443-.633a15.934,15.934,0,0,0,2.864-1.133,4.287,4.287,0,0,0,2.136-2.291,5.476,5.476,0,0,0-.466-2.577q-.358-.656-.7-1.312c.032-.3.068-.573.108-.811a2.516,2.516,0,0,1,.357-1.074.166.166,0,0,1,.06-.036q.12,0,.513.62a3.549,3.549,0,0,0,.716.907,10.915,10.915,0,0,0,1.468.513Z"/>
        <path id="Path_14441" data-name="Path 14441" d="M86.046-362.225H83.231v-1.981h2.815Z"/>
        <path id="Path_14442" data-name="Path 14442" d="M88.862-362.225H86.046v-1.981h2.816Z"/>
        <path id="Path_14443" data-name="Path 14443" d="M91.678-362.225H88.862v-1.981h2.816Z"/>
        <path id="Path_14444" data-name="Path 14444" d="M94.494-362.225H91.678v-1.981h2.816Z"/>
        <path id="Path_14445" data-name="Path 14445" d="M97.31-362.225H94.494v-1.981H97.31Z"/>
        <path id="Path_14446" data-name="Path 14446" d="M100.125-362.225H97.31v-1.981h2.815Z"/>
        <path id="Path_14447" data-name="Path 14447" d="M102.941-362.225h-2.816v-1.981h2.816Z"/>
        <path id="Path_14448" data-name="Path 14448" d="M105.757-362.225h-2.816v-1.981h2.816Z"/>
        <path id="Path_14449" data-name="Path 14449" d="M108.572-362.225h-2.816v-1.981h2.816Z"/>
        <path id="Path_14450" data-name="Path 14450" d="M111.388-362.225h-2.816v-1.981h2.816Z"/>
        <path id="Path_14451" data-name="Path 14451" d="M114.2-362.225h-2.816v-1.981H114.2Z"/>
        <path id="Path_14452" data-name="Path 14452" d="M117.02-362.225H114.2v-1.981h2.816Z"/>
        <path id="Path_14453" data-name="Path 14453" d="M117.652-373.393a5.935,5.935,0,0,1-.191.7q-.238.691-.466.787-.2.108-1.323-.859a3.933,3.933,0,0,1,.238-.942q.286-.836.525-.835a.132.132,0,0,1,.072.024c.35.206.695.417,1.038.632C117.616-373.827,117.652-373.663,117.652-373.393Zm.859-2.78a.5.5,0,0,1,.012.119,5.486,5.486,0,0,1-.669,1.54c-.007.016-.023.023-.047.023a1.77,1.77,0,0,1-.8-.453q-.572-.453-.5-.692a3.792,3.792,0,0,1,.537-1.432.214.214,0,0,1,.167-.083c.119,0,.309.127.572.381A4.2,4.2,0,0,0,118.511-376.173Zm.656,11.108a5.02,5.02,0,0,1-.465,2.16q-.323.68-1.682.68v-1.981q1.109,0,1.217-.585a4.044,4.044,0,0,0-.525-.942,1.947,1.947,0,0,1-.371-.895,12,12,0,0,1,.538-1.36.209.209,0,0,1,.1-.024q.334,0,.668.7A6.84,6.84,0,0,1,119.167-365.065Zm.978-8.674a3.469,3.469,0,0,1-.227.787q-.285.753-.524.752a1.625,1.625,0,0,1-.716-.441q-.561-.467-.561-.752.167-.369.585-1.563,1.455.561,1.455,1.122A.344.344,0,0,1,120.145-373.739Z"/>
        <path id="Path_14454" data-name="Path 14454" d="M127.423-362.225h-.536a6.2,6.2,0,0,1-1.242,2.529,6.216,6.216,0,0,1-3.006,2.481,21.84,21.84,0,0,1-3.019-.56q-1.611-.406-1.611-.6c0-.048.108-.071.323-.071l1.992.023a5.894,5.894,0,0,0,1.683-.214,7.357,7.357,0,0,0,2.415-1.521,6.273,6.273,0,0,0,1.785-2.07c-.454.031-.756.047-.908.047q-2.219,0-2.219-1.98a3.914,3.914,0,0,1,.573-1.73q.645-1.2,1.324-1.325.371-.059,1.062.883a6.132,6.132,0,0,1,.99,2.124h.394Zm-2.052-2.029a1.241,1.241,0,0,0-.191-.632q-.227-.395-.537-.346-.477.024-.537.656a1.6,1.6,0,0,0,.764.346Q125.251-364.158,125.371-364.254Z"/>
        <path id="Path_14455" data-name="Path 14455" d="M130.24-362.225h-2.816v-1.981h2.816Z"/>
        <path id="Path_14456" data-name="Path 14456" d="M133.055-362.225H130.24v-1.981h2.815Z"/>
        <path id="Path_14457" data-name="Path 14457" d="M135.87-362.225h-2.815v-1.981h2.815Z"/>
        <path id="Path_14458" data-name="Path 14458" d="M138.686-362.225H135.87v-1.981h2.816Z"/>
        <path id="Path_14459" data-name="Path 14459" d="M141.5-362.225h-2.816v-1.981H141.5Z"/>
        <path id="Path_14460" data-name="Path 14460" d="M144.318-362.225H141.5v-1.981h2.816Z"/>
        <path id="Path_14461" data-name="Path 14461" d="M147.134-362.225h-2.816v-1.981h2.816Z"/>
        <path id="Path_14462" data-name="Path 14462" d="M149.949-362.225h-2.815v-1.981h2.815Z"/>
        <path id="Path_14463" data-name="Path 14463" d="M152.765-362.225h-2.816v-1.981h2.816Z"/>
        <path id="Path_14464" data-name="Path 14464" d="M164.35-381.59a5.088,5.088,0,0,1-.417,1.038,9.033,9.033,0,0,1-2.745,2.088q-1.622.9-3.244,1.778-1.36.859-4.678,2.816A11.289,11.289,0,0,0,151-372.236a13.723,13.723,0,0,1,3.316,2.029q2.649,2.146,2.649,4.378a3.363,3.363,0,0,1-1.1,2.219,4.111,4.111,0,0,1-3.1,1.385v-1.981a4.1,4.1,0,0,0,2.2-.68q1.05-.669,1.049-1.253-.07-.739-2.052-2.183a8.981,8.981,0,0,0-2.589-1.516c-.055-.023-.127,0-.215.06a.654.654,0,0,1-.25.131,1.906,1.906,0,0,1-1.109-1.181,9.266,9.266,0,0,1-.072-1.563,1.277,1.277,0,0,1,.226-.751q.085-.12.692-.74a27.938,27.938,0,0,1,6.05-3.854q2.994-1.67,7.564-4.068A.384.384,0,0,1,164.35-381.59Z"/>
      </g>
      <g id="Group_12973" data-name="Group 12973">
        <path id="Path_14465" data-name="Path 14465" d="M91.877-389.942a2.5,2.5,0,0,1-.244,1.32c-.085.117-.157.176-.215.176s-.128-.059-.206-.176a.945.945,0,0,0-.86-.362q-.391,0-1.525,1.134-1.212,1.212-1.213,1.887a.455.455,0,0,0,.157.361q.732.109,2.258.323.392.166.783.323a.948.948,0,0,1,.459.88,6.073,6.073,0,0,1-.538,1.7,6.916,6.916,0,0,1-2.854,2.17,7.856,7.856,0,0,1-3.256.91,2.993,2.993,0,0,1-2.454-1.33,4.358,4.358,0,0,1-.929-2.7,8.381,8.381,0,0,1,.489-2.063q.5-1.556.772-1.662a.081.081,0,0,1,.118.068.637.637,0,0,1-.025.22.732.732,0,0,1-.093.22,4.5,4.5,0,0,0-.439,2.317,2.979,2.979,0,0,0,1.045,2.288,2.834,2.834,0,0,0,2.073.821,8.779,8.779,0,0,0,3.246-1.007q1.887-.918,1.887-1.378a.081.081,0,0,0-.02-.059c0-.144-.241-.244-.723-.3l-1.2-.137q-.655-.156-.85-.225a1.1,1.1,0,0,1-.675-.616,3.64,3.64,0,0,1-.019-.381,6.3,6.3,0,0,1,1.5-3.744,4.826,4.826,0,0,1,2.689-2.1A1.242,1.242,0,0,1,91.877-389.942Z"/>
        <path id="Path_14466" data-name="Path 14466" d="M96.355-383.842q-1.223,0-1.564-.6a10.762,10.762,0,0,1-.685-3.314q-.284-2.512-.665-5.094-.1-.489-.342-1.838l.177-.977c.071-.4.14-.607.205-.607.026,0,.055.043.087.127a16.539,16.539,0,0,1,.6,3.129q.46,3.627.479,3.793a18.212,18.212,0,0,0,.567,3.08,1.138,1.138,0,0,0,1.144.675Z"/>
        <path id="Path_14467" data-name="Path 14467" d="M103.521-385.826c-.11.169-.218.342-.322.518a1.042,1.042,0,0,1-.792.254,5.041,5.041,0,0,1-.743-.068c-.587-.092-.906-.143-.958-.157-.027-.006-.189-.062-.489-.166l-2.073,1.1a4.19,4.19,0,0,1-1.789.508v-1.622a5.914,5.914,0,0,0,1.545-.294,4.168,4.168,0,0,0,1.1-.459,3.279,3.279,0,0,0-.284-.528,1.007,1.007,0,0,1-.166-.489.742.742,0,0,1,.039-.235,4.1,4.1,0,0,1,.391-.792,2.1,2.1,0,0,0,.293-.664.585.585,0,0,1-.175-.5,1.973,1.973,0,0,1,.214-.89c.157-.313.329-.466.519-.459a3.594,3.594,0,0,1,2.268,1.486q.879,1,1.1,1.3a2.556,2.556,0,0,1,.587,1.418A1.187,1.187,0,0,1,103.521-385.826Zm-2.884-1.7q-.078-.9-.616-.9a1.875,1.875,0,0,0-.537.46,1.3,1.3,0,0,0-.391.792.469.469,0,0,0,.049.215,2.882,2.882,0,0,0,.977.195Q100.667-387.2,100.637-387.527Zm2.327,1.261q.02-.342-.733-1.1a7,7,0,0,0-1.046-.909,6.232,6.232,0,0,1-.167,1.769q.021,0,.871.206a4.037,4.037,0,0,0,.831.146C102.876-386.149,102.957-386.188,102.964-386.266Z"/>
      </g>
    </g>
  </g>
</svg>
