<svg xmlns="http://www.w3.org/2000/svg" width="164.678" height="47.004" viewBox="0 0 164.678 47.004">
  <g id="Group_13078" data-name="Group 13078" transform="translate(22225.24 21490.775)">
    <g id="Group_13011" data-name="Group 13011" transform="translate(-22227.33 -21491.273)">
      <g id="Group_12997" data-name="Group 12997">
        <path id="Path_14599" data-name="Path 14599" d="M70.267,27.732l-.443,2.245h-1.6l2.066-8.922h2.074l2.088,8.922H72.777l-.445-2.245Zm1.78-1.387c-.332-1.708-.6-2.955-.739-3.808H71.27c-.109.822-.391,2.163-.72,3.808Z"/>
      </g>
      <g id="Group_12998" data-name="Group 12998">
        <path id="Path_14600" data-name="Path 14600" d="M77.458,26.173v3.8H75.869V21.055H78.6a2.246,2.246,0,0,1,2.541,2.438,2,2,0,0,1-1.157,2.031c.691.324,1.018.91,1.018,2.228v.356a10.4,10.4,0,0,0,.121,1.869H79.578a7.391,7.391,0,0,1-.153-1.884v-.325c0-1.192-.274-1.595-1.283-1.595Zm0-1.294h.749c.965,0,1.342-.415,1.342-1.317a1.065,1.065,0,0,0-1.185-1.213h-.906Z"/>
      </g>
      <g id="Group_12999" data-name="Group 12999">
        <path id="Path_14601" data-name="Path 14601" d="M88.5,26.659c0-1.523.026-3.263.052-4.275h-.036c-.308,1.694-.8,4.7-1.386,7.593H85.687c-.432-2.69-.945-5.893-1.231-7.618h-.049c.052,1.042.092,2.911.092,4.453v3.165H83.037V21.055h2.388c.467,2.465.877,4.957,1.056,6.259H86.5c.181-1.211.74-3.9,1.206-6.259h2.331v8.922H88.5Z"/>
      </g>
      <g id="Group_13000" data-name="Group 13000">
        <path id="Path_14602" data-name="Path 14602" d="M93.562,27.732l-.443,2.245h-1.6l2.067-8.922h2.073l2.088,8.922H96.072l-.445-2.245Zm1.78-1.387c-.332-1.708-.6-2.955-.739-3.808h-.038c-.109.822-.391,2.163-.72,3.808Z"/>
      </g>
      <g id="Group_13001" data-name="Group 13001">
        <path id="Path_14603" data-name="Path 14603" d="M99.164,29.977V21.055h1.814c1.845,4.931,2.2,5.871,2.307,6.309h.013c-.076-1.072-.079-2.385-.079-3.848V21.055h1.427v8.922h-1.74c-1.9-5.257-2.243-6.2-2.359-6.614h-.013c.066,1.1.068,2.413.068,4.012v2.6Z"/>
      </g>
      <g id="Group_13002" data-name="Group 13002">
        <path id="Path_14604" data-name="Path 14604" d="M113.746,27.732l-.443,2.245h-1.6l2.066-8.922h2.073l2.089,8.922h-1.676l-.444-2.245Zm1.78-1.387c-.332-1.708-.6-2.955-.739-3.808h-.039c-.108.822-.391,2.163-.719,3.808Z"/>
      </g>
      <g id="Group_13003" data-name="Group 13003">
        <path id="Path_14605" data-name="Path 14605" d="M118.687,21.055h2.685a2.419,2.419,0,0,1,2.578,2.654,2.417,2.417,0,0,1-2.7,2.639h-.96v3.629h-1.6Zm1.6,4.011h.78c.887,0,1.279-.438,1.279-1.38,0-.893-.461-1.337-1.194-1.337h-.865Z"/>
      </g>
      <g id="Group_13004" data-name="Group 13004">
        <path id="Path_14606" data-name="Path 14606" d="M126.349,22.454h-1.906v-1.4h5.412v1.4h-1.906v7.523h-1.6Z"/>
      </g>
      <g id="Group_13005" data-name="Group 13005">
        <path id="Path_14607" data-name="Path 14607" d="M129.5,29.978V27.955h1.61v2.023Z"/>
      </g>
      <g id="Group_13006" data-name="Group 13006">
        <path id="Path_14608" data-name="Path 14608" d="M134.679,21.055h1.6v3.526h2.151V21.055h1.6v8.922h-1.6V25.968h-2.151v4.009h-1.6Z"/>
      </g>
      <g id="Group_13007" data-name="Group 13007">
        <path id="Path_14609" data-name="Path 14609" d="M147.734,25.448c0,3.262-.886,4.682-2.943,4.682-1.92,0-2.857-1.4-2.857-4.7,0-3.219,1.09-4.516,2.93-4.516C146.808,20.913,147.734,22.35,147.734,25.448Zm-4.162-.033c0,2.116.321,3.375,1.257,3.375.986,0,1.268-1.166,1.268-3.372,0-2.073-.3-3.153-1.269-3.153S143.572,23.426,143.572,25.415Z"/>
      </g>
      <g id="Group_13008" data-name="Group 13008">
        <path id="Path_14610" data-name="Path 14610" d="M150.659,22.454h-1.906v-1.4h5.412v1.4h-1.906v7.523h-1.6Z"/>
      </g>
      <g id="Group_13009" data-name="Group 13009">
        <path id="Path_14611" data-name="Path 14611" d="M160.134,26.011H157.27V28.6h3.215l-.2,1.375h-4.6V21.055h4.576v1.4h-3v2.171h2.864Z"/>
      </g>
      <g id="Group_13010" data-name="Group 13010">
        <path id="Path_14612" data-name="Path 14612" d="M162.114,21.055h1.6v7.559h3.053l-.155,1.363h-4.5Z"/>
      </g>
    </g>
    <g id="Group_13027" data-name="Group 13027" transform="translate(-22227.33 -21491.273)">
      <g id="Group_13024" data-name="Group 13024">
        <g id="Group_13012" data-name="Group 13012">
          <path id="Path_14613" data-name="Path 14613" d="M4.665,13.439c-.049.086-.1.17-.148.256L3.431,16.639l11.794,4.333a12.051,12.051,0,0,1,.473-1.135Z"/>
        </g>
        <g id="Group_13013" data-name="Group 13013">
          <path id="Path_14614" data-name="Path 14614" d="M8.474,8.293c-.091.095-.183.189-.272.285L6.437,11.051l10.152,7.224q.351-.519.751-1Z"/>
        </g>
        <g id="Group_13014" data-name="Group 13014">
          <path id="Path_14615" data-name="Path 14615" d="M13.6,4.157c-.225.137-.446.283-.667.427L10.9,6.251l7.853,9.593a12.459,12.459,0,0,1,.995-.776Z"/>
        </g>
        <g id="Group_13015" data-name="Group 13015">
          <path id="Path_14616" data-name="Path 14616" d="M19.685,1.484c-.646.188-1.281.4-1.9.635L16.5,2.69l5.053,11.332a12.215,12.215,0,0,1,1.166-.475Z"/>
        </g>
        <g id="Group_13016" data-name="Group 13016">
          <path id="Path_14617" data-name="Path 14617" d="M25.865.5a25.423,25.423,0,0,0-3.324.333l1.89,12.252c.388-.074.782-.131,1.181-.168Z"/>
        </g>
        <g id="Group_13017" data-name="Group 13017">
          <path id="Path_14618" data-name="Path 14618" d="M31.806.982A25.341,25.341,0,0,0,28.461.54l-.069,12.434a12.208,12.208,0,0,1,1.2.223Z"/>
        </g>
        <g id="Group_13018" data-name="Group 13018">
          <path id="Path_14619" data-name="Path 14619" d="M37.889,3.058A24.993,24.993,0,0,0,34.78,1.785L31.237,13.713q.564.222,1.1.5Z"/>
        </g>
        <g id="Group_13019" data-name="Group 13019">
          <path id="Path_14620" data-name="Path 14620" d="M34.682,15.662,43.22,6.578a25.414,25.414,0,0,0-2.673-2.005L33.689,15.018c.189.13.373.266.554.407Z"/>
        </g>
        <g id="Group_13020" data-name="Group 13020">
          <path id="Path_14621" data-name="Path 14621" d="M37.009,18.308l10.578-6.881a25.7,25.7,0,0,0-2.093-2.645l-9.236,8.609q.291.358.554.74Z"/>
        </g>
        <g id="Group_13021" data-name="Group 13021">
          <path id="Path_14622" data-name="Path 14622" d="M50.5,17.155,48.983,14.07,37.706,19.638a11.969,11.969,0,0,1,.493,1.123Z"/>
        </g>
        <g id="Group_13022" data-name="Group 13022">
          <path id="Path_14623" data-name="Path 14623" d="M51.921,23.187c-.036-.356-.083-.708-.134-1.059l-.579-2.284L38.812,23c.052.3.1.607.125.916l.087.251Z"/>
        </g>
        <g id="Group_13023" data-name="Group 13023">
          <path id="Path_14624" data-name="Path 14624" d="M2.389,19.72l-.3,3.425,12.454,1.069a12.21,12.21,0,0,1,.152-1.233Z"/>
        </g>
      </g>
      <path id="Path_14625" data-name="Path 14625" d="M31.784,35.17a1.016,1.016,0,0,1-.033.489,3.245,3.245,0,0,1-.25.594,2.369,2.369,0,0,1-.461.606.526.526,0,0,1-.3.177.811.811,0,0,1-.305-.194c-.159-.129-.3-.248-.434-.355s-.241-.207-.333-.295a.362.362,0,0,1-.138-.222q.144-.3.211-.456c.147-.333.275-.6.382-.789s.277-.477.506-.855c.134.111.3.242.5.394a2.7,2.7,0,0,1,.455.428A.99.99,0,0,1,31.784,35.17Z"/>
      <path id="Path_14626" data-name="Path 14626" d="M37.487,38.371a1.715,1.715,0,0,0,.3,1.1.807.807,0,0,0,.656.378c.044-.008.119-.192.223-.555a1.928,1.928,0,0,1,.277-.645q.267-.1.444.233a1.893,1.893,0,0,1,.189.578A4.058,4.058,0,0,1,39.22,41.1q-.5,1.068-1.345,1.067a1.076,1.076,0,0,1-.822-.378,1.719,1.719,0,0,1-.433-.834,6.748,6.748,0,0,1-.089-1.2,2.333,2.333,0,0,1,.1-.633,3.017,3.017,0,0,1,.238-.6,1.572,1.572,0,0,1,.317-.423q.173-.156.306-.111Z"/>
      <path id="Path_14627" data-name="Path 14627" d="M44.3,36.4a5.683,5.683,0,0,1-.229,1.088q-.216.791-.565,1.722a11.067,11.067,0,0,1-.617,1.411,2.427,2.427,0,0,1-.583.729,3.125,3.125,0,0,1-1.023.455,10.789,10.789,0,0,1-1.133.278,4.481,4.481,0,0,1-.538.071c-.075-.007-.119-.037-.134-.089a.244.244,0,0,1,.067-.2,2.115,2.115,0,0,1,.617-.494c.329-.2.712-.459,1.149-.767a4.71,4.71,0,0,0,.933-.806,6.107,6.107,0,0,0,.628-1.033c.234-.459.444-.922.634-1.389s.323-.785.405-.955.17-.251.267-.244C44.256,36.2,44.3,36.271,44.3,36.4Z"/>
      <path id="Path_14628" data-name="Path 14628" d="M50.385,29.627a3.824,3.824,0,0,0,1.522-.3,4.74,4.74,0,0,0,.756-.411c.229-.155.383-.258.461-.306a.392.392,0,0,1,.194-.072c.045,0,.064.039.061.116a.578.578,0,0,1-.105.273,4.141,4.141,0,0,1-.583.783,4.841,4.841,0,0,1-.906.761,7.034,7.034,0,0,1-1.455.745,4.532,4.532,0,0,1-1.612.188,3.3,3.3,0,0,1-.683-.123,5.2,5.2,0,0,0-.722-.149,1.731,1.731,0,0,0-.756.039,2.039,2.039,0,0,0-.555.256q-.226.155-.422.316c-.129.108-.227.139-.294.094-.037-.051-.006-.166.094-.343a3.163,3.163,0,0,1,.394-.546,5.232,5.232,0,0,1,1.211-1.077,2.6,2.6,0,0,1,1.345-.5,9.63,9.63,0,0,1,1.122.178A5.516,5.516,0,0,0,50.385,29.627Zm-2.033,6.289q-.022.8-.034,1.445a10.381,10.381,0,0,1-.066,1.088,6.481,6.481,0,0,1-.367,1.694,5.783,5.783,0,0,1-.439.983,2.991,2.991,0,0,1-.261.355c-.082.075-.144.1-.189.073a.1.1,0,0,1-.044-.128q0-.022.133-.672a8.551,8.551,0,0,0,.167-1.261q.033-.611.011-1.728a12.091,12.091,0,0,1,.056-1.7,4.758,4.758,0,0,1,.15-.711c.07-.244.15-.485.238-.721s.184-.462.284-.674.19-.4.272-.56c.067-.1.126-.145.178-.122a.106.106,0,0,1,.066.122,3.447,3.447,0,0,0-.049.416c-.02.219-.036.464-.051.733s-.027.536-.039.8S48.352,35.789,48.352,35.916Z"/>
      <path id="Path_14629" data-name="Path 14629" d="M36.177,32.033l-.991,2.389v1.2a2.52,2.52,0,0,1-.658,1.7C32.1,39.99,23.036,48.314,8.9,42.741c0,0-1.317-.531-.352,1.13a6.466,6.466,0,0,0,3.584,2.837c4.015,1.336,12.881,2.342,23-8.865a4.032,4.032,0,0,0,1.049-2.7Z"/>
      <g id="Group_13025" data-name="Group 13025">
        <path id="Path_14630" data-name="Path 14630" d="M10.05,32.67a.262.262,0,0,1-.009.129.926.926,0,0,1-.066.158.613.613,0,0,1-.122.16.135.135,0,0,1-.079.047.222.222,0,0,1-.082-.051l-.114-.094c-.035-.029-.064-.055-.089-.078a.1.1,0,0,1-.036-.059c.025-.053.044-.093.056-.121.039-.088.073-.157.1-.209s.073-.126.134-.226l.131.1a.674.674,0,0,1,.121.113A.266.266,0,0,1,10.05,32.67Z"/>
        <path id="Path_14631" data-name="Path 14631" d="M11.116,33.6a2.144,2.144,0,0,1-.035.3,1.063,1.063,0,0,1-.07.23.358.358,0,0,1-.113.142.231.231,0,0,1-.166.033q0-.345.073-.962t.206-1.365c.047-.143.142-.4.287-.764.015-.036.03-.05.046-.044s.025.02.025.044c-.009.179-.046.523-.111,1.03s-.105.855-.119,1.044S11.116,33.586,11.116,33.6Z"/>
        <path id="Path_14632" data-name="Path 14632" d="M11.631,34.06a.264.264,0,0,0,.176.051h.182a.091.091,0,0,1,.088.1,1.185,1.185,0,0,1-.071.279,1.448,1.448,0,0,1-.323.57.631.631,0,0,1-.455.208.405.405,0,0,1-.367-.234,1.137,1.137,0,0,1-.128-.579l0-.2a1.573,1.573,0,0,1,.049-.248,1.153,1.153,0,0,1,.088-.232.654.654,0,0,1,.117-.168.149.149,0,0,1,.126-.055q0,.624.137.667a1.053,1.053,0,0,0,.137-.212,1.368,1.368,0,0,1,.08-.132.1.1,0,0,1,.051-.032.312.312,0,0,1,.07-.008.244.244,0,0,1,.069.01.1.1,0,0,1,.044.03.464.464,0,0,0-.039.035C11.6,33.976,11.591,34.024,11.631,34.06Z"/>
        <path id="Path_14633" data-name="Path 14633" d="M11.669,30.967a1.017,1.017,0,0,1,.108-.238c.073-.136.116-.2.132-.2s.074.009.131.064a1.1,1.1,0,0,1,.131.147l.118-.195c.043-.073.072-.109.086-.109a.247.247,0,0,1,.157.1.3.3,0,0,1,.1.181.435.435,0,0,1-.1.238q-.1.135-.141.135c-.019,0-.054-.026-.105-.077a1.149,1.149,0,0,0-.135-.119c-.095.192-.171.288-.227.288a.111.111,0,0,1-.061-.034l-.115-.1Q11.669,30.982,11.669,30.967Z"/>
        <path id="Path_14634" data-name="Path 14634" d="M11.47,33.879a2.144,2.144,0,0,1,.347-.4,4.257,4.257,0,0,1,.481-.372c.114-.07.212-.128.291-.172a.2.2,0,0,1,.089-.026c.009.008.012.026.009.052s-.023.062-.049.125l-.049.1a.83.83,0,0,1-.137.191,1.124,1.124,0,0,1-.119.074c-.109.069-.186.115-.23.138a2.076,2.076,0,0,0-.21.137,2.1,2.1,0,0,0-.188.146A.193.193,0,0,1,11.47,33.879Z"/>
        <path id="Path_14635" data-name="Path 14635" d="M14.549,32.976a2.267,2.267,0,0,1-.091.433c-.058.21-.132.438-.225.686a4.474,4.474,0,0,1-.245.561.991.991,0,0,1-.233.291,1.267,1.267,0,0,1-.407.181,4,4,0,0,1-.451.11,1.66,1.66,0,0,1-.214.029.053.053,0,0,1-.053-.036.1.1,0,0,1,.027-.079.833.833,0,0,1,.245-.2c.131-.081.284-.182.458-.305a1.868,1.868,0,0,0,.37-.32,2.388,2.388,0,0,0,.251-.412q.14-.274.252-.553c.075-.186.128-.312.161-.38s.068-.1.106-.1S14.549,32.923,14.549,32.976Z"/>
        <path id="Path_14636" data-name="Path 14636" d="M15.246,33.6a2.144,2.144,0,0,1-.035.3,1.063,1.063,0,0,1-.07.23.358.358,0,0,1-.113.142.231.231,0,0,1-.166.033q0-.345.073-.962t.206-1.365c.047-.143.142-.4.287-.764.015-.036.031-.05.046-.044s.025.02.025.044c-.009.179-.046.523-.111,1.03s-.1.855-.119,1.044S15.246,33.586,15.246,33.6Z"/>
        <path id="Path_14637" data-name="Path 14637" d="M14.986,36.243a1.283,1.283,0,0,1,.119-.268c.079-.155.127-.233.145-.233a.279.279,0,0,1,.143.086.5.5,0,0,1,.129.16c.041-.068.08-.136.117-.2.055-.1.089-.143.1-.143a.276.276,0,0,1,.167.1.33.33,0,0,1,.1.208.537.537,0,0,1-.1.269q-.1.156-.147.156c-.024,0-.057-.025-.1-.073a1.2,1.2,0,0,0-.154-.15c-.1.219-.182.328-.24.328a.575.575,0,0,1-.15-.109C15.03,36.3,14.986,36.256,14.986,36.243Z"/>
        <path id="Path_14638" data-name="Path 14638" d="M14.863,34.307a1.958,1.958,0,0,1,.2-.561c.076-.122.137-.187.184-.2v.194a.6.6,0,0,0,.2.518.3.3,0,0,0,.239.053.282.282,0,0,0,.183-.124.965.965,0,0,0,.109-.228c.029-.087.058-.13.084-.13s.046.031.04.093a2.579,2.579,0,0,1-.1.517,1.778,1.778,0,0,1-.259.588.512.512,0,0,1-.4.243.425.425,0,0,1-.371-.27,1.494,1.494,0,0,1-.11-.663Z"/>
        <path id="Path_14639" data-name="Path 14639" d="M15.261,36.79a1.461,1.461,0,0,1,.118-.233c.076-.135.123-.2.14-.2a.251.251,0,0,1,.154.108.283.283,0,0,1,.077.2.584.584,0,0,1-.1.252c-.063.1-.106.143-.129.143s-.034-.016-.056-.044l-.09-.093-.078-.067C15.275,36.828,15.261,36.808,15.261,36.79Z"/>
        <path id="Path_14640" data-name="Path 14640" d="M18.569,30.279a1.513,1.513,0,0,0,.6-.12,1.838,1.838,0,0,0,.3-.163c.091-.063.153-.1.184-.122a.158.158,0,0,1,.077-.029c.018,0,.026.016.025.046a.238.238,0,0,1-.042.109,1.644,1.644,0,0,1-.233.312,2,2,0,0,1-.36.3,2.8,2.8,0,0,1-.58.3,1.791,1.791,0,0,1-.641.075,1.376,1.376,0,0,1-.271-.048,1.944,1.944,0,0,0-.288-.06.69.69,0,0,0-.3.015.824.824,0,0,0-.221.1q-.091.063-.168.126c-.052.043-.09.056-.118.038s0-.067.038-.137a1.254,1.254,0,0,1,.157-.217,2.081,2.081,0,0,1,.482-.429,1.045,1.045,0,0,1,.535-.2,3.8,3.8,0,0,1,.447.07A2.163,2.163,0,0,0,18.569,30.279Zm-.81,2.5c-.006.213-.01.4-.013.575s-.012.316-.026.434a2.657,2.657,0,0,1-.146.675,2.34,2.34,0,0,1-.175.391,1.4,1.4,0,0,1-.1.142c-.033.029-.058.039-.075.028a.041.041,0,0,1-.018-.051c0-.006.018-.095.053-.268a3.482,3.482,0,0,0,.067-.5c.008-.161.009-.391,0-.687a4.778,4.778,0,0,1,.022-.679,1.815,1.815,0,0,1,.06-.283c.028-.1.059-.193.095-.287s.073-.184.112-.268.076-.158.109-.223c.026-.041.049-.058.071-.049a.043.043,0,0,1,.026.049,1.515,1.515,0,0,0-.02.165c-.007.087-.014.185-.02.293s-.011.213-.015.316S17.759,32.732,17.759,32.781Z"/>
        <path id="Path_14641" data-name="Path 14641" d="M10.732,32.14l-.279.672v.338a.706.706,0,0,1-.185.479,6.3,6.3,0,0,1-7.206,1.522s-.37-.149-.1.318a1.811,1.811,0,0,0,1.008.8c1.129.376,3.622.659,6.466-2.492a1.133,1.133,0,0,0,.3-.758Z"/>
      </g>
      <path id="Path_14642" data-name="Path 14642" d="M37.35,34.548c-.186,1.055-.548,1.9-.647,2.795q-.171,1.551-.183,2.416a.57.57,0,0,0,.417-.083.846.846,0,0,0,.283-.355,2.558,2.558,0,0,0,.178-.577,5.549,5.549,0,0,0,.089-.762c0-.044.018-.3.055-.777.032-.41.114-1.14.24-2.151,0,0,.064-.607-.216-.683C37.4,34.326,37.35,34.548,37.35,34.548Z"/>
      <g id="Group_13026" data-name="Group 13026">
        <path id="Path_14643" data-name="Path 14643" d="M23.006,29.5c.131.108.229.188.291.241a.285.285,0,0,0,.155.087q.214,0,.576-.729a3.049,3.049,0,0,1,.341.3c.129.129.219.194.268.194q.114,0,.355-.342a1.1,1.1,0,0,0,.248-.6A.765.765,0,0,0,25,28.2a.626.626,0,0,0-.4-.245c-.036,0-.109.092-.218.275l-.3.5a2.9,2.9,0,0,0-.331-.372c-.146-.141-.256-.195-.332-.165-.04,0-.152.173-.335.516a2.607,2.607,0,0,0-.275.6C22.808,29.331,22.875,29.4,23.006,29.5Z"/>
        <path id="Path_14644" data-name="Path 14644" d="M28.573,29.978a.317.317,0,0,1-.223-.167c-.8-1.523-1.38.067-1.547.628a.9.9,0,0,1-.188.331,1.824,1.824,0,0,0-.438,2.093l.051.306a.206.206,0,0,1-.2.24H24.919a.409.409,0,0,0-.318.166c-.723.954-1.214.926-1.214.926-1.326.569-1.984-.544-2.263-1.279a4.879,4.879,0,0,1,.3-1.49c.077-.2.152-.406.226-.617,0,0,.008-.233-.342.416A15.35,15.35,0,0,1,5.25,39.786s.169,1.641,3.324,1.935c0,0,6.135,1.53,12.158-8.175A5.291,5.291,0,0,0,20.6,35.2a1.208,1.208,0,0,0,.26.659c1.321,1.483,3.049-.253,3.406-.873a.358.358,0,0,1,.311-.178h.9a.76.76,0,0,0,.5-.186l1.683-1.459a.579.579,0,0,1,.383-.143h1.541c.5.021.788-.45.917-.744a1.041,1.041,0,0,0,.083-.416v-.839C30.524,30.385,29.056,30.066,28.573,29.978Zm-.561,2.154a1.056,1.056,0,0,1-1.047.034s-.972-.286-.084-1.135a.645.645,0,0,1,.216-.137.745.745,0,0,1,1.121.67A.6.6,0,0,1,28.012,32.132Zm1.713.148s-1.028.267-1.088-.426a.545.545,0,0,1,.269-.519.89.89,0,0,1,1.062.208A.444.444,0,0,1,29.725,32.28Z"/>
      </g>
    </g>
  </g>
</svg>
